<?xml version="1.0" encoding="UTF-8" standalone="no"?>
<!-- Created with Inkscape (http://www.inkscape.org/) -->

<svg
   width="59.529003mm"
   height="150.239mm"
   viewBox="0 0 59.529003 150.239"
   version="1.1"
   id="svg14242"
   xmlns="http://www.w3.org/2000/svg"
   xmlns:svg="http://www.w3.org/2000/svg">
  <defs
     id="defs14239" />
  <g
     id="layer1"
     transform="translate(-67.764631,-6.9847262)">
    <g
       id="board_00000059276527951363535050000014229875754978846389_"
       transform="matrix(0.39080015,0,0,0.39080015,-34.376836,-40.202626)">
      <path
         class="st0"
         d="m 412.29324,142.43768 v -3.98886 c 0,-1.00041 -0.811,-1.81404 -1.81405,-1.81404 H 264.56323 c -1.00293,0 -1.81405,0.81363 -1.81405,1.81404 v 3.98636 c 1.00308,0.51177 1.71176,1.52748 1.71176,2.73013 0,1.2025 -0.70868,2.21837 -1.71176,2.73014 v 12.96727 c 1.00308,0.51176 1.71176,1.52748 1.71176,2.72998 0,1.20265 -0.70868,2.21837 -1.71176,2.73013 v 12.96477 c 1.00308,0.51176 1.71176,1.52748 1.71176,2.73013 0,1.2025 -0.70868,2.21837 -1.71176,2.72998 v 12.96228 c 1.00308,0.51177 1.71176,1.52748 1.71176,2.72998 0,1.20265 -0.70868,2.21837 -1.71176,2.73014 v 12.95961 c 1.00308,0.51176 1.71176,1.52748 1.71176,2.73013 0,1.2025 -0.70868,2.21838 -1.71176,2.73013 v 12.96213 c 1.00308,0.51176 1.71176,1.52748 1.71176,2.73013 0,1.2025 -0.70868,2.21837 -1.71176,2.72998 v 12.96228 c 1.00308,0.51175 1.71176,1.52748 1.71176,2.73014 0,1.2025 -0.70868,2.21821 -1.71176,2.72996 v 12.96228 c 1.00308,0.5116 1.71176,1.5275 1.71176,2.72998 0,1.20264 -0.70868,2.21836 -1.71176,2.73014 v 12.96212 c 1.00308,0.51175 1.71176,1.52762 1.71176,2.73014 0,1.20263 -0.70868,2.21835 -1.71176,2.73013 v 12.9621 c 1.00308,0.51178 1.71176,1.52765 1.71176,2.73013 0,1.20267 -0.70868,2.21838 -1.71176,2.73013 v 12.96213 c 1.00308,0.51178 1.71176,1.5275 1.71176,2.73013 0,1.20252 -0.70868,2.21839 -1.71176,2.73014 v 12.96212 c 1.00308,0.51175 1.71176,1.52747 1.71176,2.73014 0,1.20248 -0.70868,2.21838 -1.71176,2.72998 v 12.96228 c 1.00308,0.51175 1.71176,1.52746 1.71176,2.72998 0,1.20264 -0.70868,2.21835 -1.71176,2.73013 v 12.9621 c 1.00308,0.51178 1.71176,1.52765 1.71176,2.73013 0,1.20267 -0.70868,2.21839 -1.71176,2.73014 v 12.96212 c 1.00308,0.51178 1.71176,1.5275 1.71176,2.73014 0,1.20266 -0.70868,2.21838 -1.71176,2.73013 v 12.96213 c 1.00308,0.51175 1.71176,1.52746 1.71176,2.73013 0,1.20248 -0.70868,2.21835 -1.71176,2.72998 v 12.96228 c 1.00308,0.51175 1.71176,1.52747 1.71176,2.72998 0,1.20264 -0.70868,2.21851 -1.71176,2.73013 v 12.96225 c 1.00308,0.51163 1.71176,1.5275 1.71176,2.72998 0,1.20267 -0.70868,2.21839 -1.71176,2.73014 v 12.96228 c 1.00308,0.51163 1.71176,1.52749 1.71176,2.72998 0,1.20267 -0.70868,2.21838 -1.71176,2.73013 v 12.95963 c 1.00308,0.51175 1.71176,1.52749 1.71176,2.73013 0,1.20248 -0.70868,2.21838 -1.71176,2.72998 v 4.03506 c 0,1.00043 0.81112,1.81406 1.81405,1.81406 h 145.91596 c 1.00039,0 1.81405,-0.81113 1.81405,-1.81406 v -4.03506 c -1.00293,-0.51178 -1.71161,-1.5275 -1.71161,-2.73013 0,-1.20249 0.70868,-2.21839 1.71161,-2.72998 v -12.95963 c -1.00293,-0.51175 -1.71161,-1.52746 -1.71161,-2.73013 0,-1.20249 0.70868,-2.21835 1.71161,-2.73013 v -12.96213 c -1.00293,-0.51175 -1.71161,-1.52747 -1.71161,-2.73014 0,-1.20248 0.70868,-2.21835 1.71161,-2.72998 v -12.96225 c -1.00293,-0.51178 -1.71161,-1.52749 -1.71161,-2.73013 0,-1.20251 0.70868,-2.21838 1.71161,-2.72998 v -12.96228 c -1.00293,-0.51178 -1.71161,-1.5275 -1.71161,-2.72998 0,-1.20267 0.70868,-2.21838 1.71161,-2.73013 v -12.96213 c -1.00293,-0.51175 -1.71161,-1.52762 -1.71161,-2.73013 0,-1.20264 0.70868,-2.21836 1.71161,-2.73014 v -12.96212 c -1.00293,-0.51175 -1.71161,-1.52762 -1.71161,-2.73014 0,-1.20248 0.70868,-2.21835 1.71161,-2.73013 v -12.9621 c -1.00293,-0.51178 -1.71161,-1.52749 -1.71161,-2.73013 0,-1.20252 0.70868,-2.21839 1.71161,-2.72998 v -12.96228 c -1.00293,-0.5116 -1.71161,-1.5275 -1.71161,-2.72998 0,-1.20267 0.70868,-2.21839 1.71161,-2.73014 v -12.96228 c -1.00293,-0.51159 -1.71161,-1.52746 -1.71161,-2.72998 0,-1.20263 0.70868,-2.21835 1.71161,-2.73013 v -12.96213 c -1.00293,-0.51175 -1.71161,-1.52762 -1.71161,-2.73013 0,-1.20248 0.70868,-2.21835 1.71161,-2.73013 v -12.9621 c -1.00293,-0.51178 -1.71161,-1.5275 -1.71161,-2.73013 0,-1.20252 0.70868,-2.21839 1.71161,-2.73014 V 276.857 c -1.00293,-0.51178 -1.71161,-1.5275 -1.71161,-2.73014 0,-1.20248 0.70868,-2.21838 1.71161,-2.72998 V 258.4346 c -1.00293,-0.51175 -1.71161,-1.52746 -1.71161,-2.73013 0,-1.20249 0.70868,-2.21822 1.71161,-2.72997 v -12.96228 c -1.00293,-0.51161 -1.71161,-1.52748 -1.71161,-2.72998 0,-1.20265 0.70868,-2.21837 1.71161,-2.73013 v -12.96213 c -1.00293,-0.51175 -1.71161,-1.52763 -1.71161,-2.73013 0,-1.20265 0.70868,-2.21837 1.71161,-2.73013 v -12.95961 c -1.00293,-0.51177 -1.71161,-1.52749 -1.71161,-2.73014 0,-1.2025 0.70868,-2.21837 1.71161,-2.72998 v -12.96228 c -1.00293,-0.51161 -1.71161,-1.52748 -1.71161,-2.72998 0,-1.20265 0.70868,-2.21837 1.71161,-2.73013 v -12.96477 c -1.00293,-0.51176 -1.71161,-1.52748 -1.71161,-2.73013 0,-1.2025 0.70868,-2.21837 1.71161,-2.72998 v -12.96477 c -1.00293,-0.51177 -1.71161,-1.52748 -1.71161,-2.73013 0,-1.2025 0.70868,-2.21839 1.71161,-2.73014 z M 273.04269,498.25015 c -1.68863,0 -3.06262,-1.37396 -3.06262,-3.06262 0,-1.68881 1.37399,-3.06277 3.06262,-3.06277 1.68882,0 3.06278,1.37396 3.06278,3.06277 0,1.68866 -1.37396,3.06262 -3.06278,3.06262 z m 0,-18.41974 c -1.68863,0 -3.06262,-1.37396 -3.06262,-3.06277 0,-1.68863 1.37399,-3.06262 3.06262,-3.06262 1.68882,0 3.06278,1.37399 3.06278,3.06262 0,1.68881 -1.37396,3.06277 -3.06278,3.06277 z m 0,-18.42239 c -1.68863,0 -3.06262,-1.37396 -3.06262,-3.06277 0,-1.68863 1.37399,-3.0626 3.06262,-3.0626 1.68882,0 3.06278,1.37397 3.06278,3.0626 0,1.68881 -1.37396,3.06277 -3.06278,3.06277 z m 0,-18.42236 c -1.68863,0 -3.06262,-1.374 -3.06262,-3.06263 0,-1.68881 1.37399,-3.06277 3.06262,-3.06277 1.68882,0 3.06278,1.37396 3.06278,3.06277 0,1.68863 -1.37396,3.06263 -3.06278,3.06263 z m 0,-18.4224 c -1.68863,0 -3.06262,-1.37396 -3.06262,-3.06262 0,-1.68881 1.37399,-3.06277 3.06262,-3.06277 1.68882,0 3.06278,1.37396 3.06278,3.06277 0,1.68866 -1.37396,3.06262 -3.06278,3.06262 z m 0,-18.42239 c -1.68863,0 -3.06262,-1.37396 -3.06262,-3.06262 0,-1.68878 1.37399,-3.06278 3.06262,-3.06278 1.68882,0 3.06278,1.37665 3.06278,3.06278 0,1.68866 -1.37396,3.06262 -3.06278,3.06262 z m 0,-18.42224 c -1.68863,0 -3.06262,-1.37396 -3.06262,-3.06275 0,-1.68866 1.37399,-3.06277 3.06262,-3.06277 1.68882,0 3.06278,1.37662 3.06278,3.06277 0,1.68879 -1.37396,3.06275 -3.06278,3.06275 z m 0,-18.42237 c -1.68863,0 -3.06262,-1.37399 -3.06262,-3.06277 0,-1.68866 1.37399,-3.06262 3.06262,-3.06262 1.68882,0 3.06278,1.37396 3.06278,3.06262 0,1.68878 -1.37396,3.06277 -3.06278,3.06277 z m 0,-18.42239 c -1.68863,0 -3.06262,-1.37396 -3.06262,-3.06262 0,-1.68881 1.37399,-3.06278 3.06262,-3.06278 1.68882,0 3.06278,1.37397 3.06278,3.06278 0,1.68866 -1.37396,3.06262 -3.06278,3.06262 z m 0,-18.42239 c -1.68863,0 -3.06262,-1.37397 -3.06262,-3.06263 0,-1.68878 1.37399,-3.06277 3.06262,-3.06277 1.68882,0 3.06278,1.37399 3.06278,3.06277 0,1.68866 -1.37396,3.06263 -3.06278,3.06263 z m 0,-18.4224 c -1.68863,0 -3.06262,-1.37396 -3.06262,-3.06259 0,-1.68881 1.37399,-3.06277 3.06262,-3.06277 1.68882,0 3.06278,1.37661 3.06278,3.06277 0,1.68863 -1.37396,3.06259 -3.06278,3.06259 z m 0,-18.42221 c -1.68863,0 -3.06262,-1.37414 -3.06262,-3.06277 0,-1.68866 1.37399,-3.06278 3.06262,-3.06278 1.68882,0 3.06278,1.37662 3.06278,3.06278 0,1.68881 -1.37396,3.06277 -3.06278,3.06277 z m 0,-18.42239 c -1.68863,0 -3.06262,-1.37396 -3.06262,-3.06278 0,-1.68866 1.37399,-3.06262 3.06262,-3.06262 1.68882,0 3.06278,1.37396 3.06278,3.06262 0,1.68882 -1.37396,3.06278 -3.06278,3.06278 z m 0,-18.42239 c -1.68863,0 -3.06262,-1.37397 -3.06262,-3.06261 0,-1.68881 1.37399,-3.06278 3.06262,-3.06278 1.68882,0 3.06278,1.37397 3.06278,3.06278 0,1.68864 -1.37396,3.06261 -3.06278,3.06261 z m 0,-18.42238 c -1.68863,0 -3.06262,-1.37398 -3.06262,-3.06263 0,-1.68879 1.37399,-3.06277 3.06262,-3.06277 1.68882,0 3.06278,1.37398 3.06278,3.06277 0,1.68865 -1.37396,3.06263 -3.06278,3.06263 z m 0,-18.42224 c -1.68863,0 -3.06262,-1.37412 -3.06262,-3.06276 0,-1.68865 1.37399,-3.06278 3.06262,-3.06278 1.68882,0 3.06278,1.37662 3.06278,3.06278 0,1.68864 -1.37396,3.06276 -3.06278,3.06276 z m 0,-18.41988 c -1.68863,0 -3.06262,-1.37398 -3.06262,-3.06262 0,-1.6888 1.37399,-3.06278 3.06262,-3.06278 1.68882,0 3.06278,1.37398 3.06278,3.06278 0,1.68864 -1.37396,3.06262 -3.06278,3.06262 z m 0,-18.41974 c -1.68863,0 -3.06262,-1.37396 -3.06262,-3.06277 0,-1.68865 1.37399,-3.06261 3.06262,-3.06261 1.68882,0 3.06278,1.37396 3.06278,3.06261 0,1.68881 -1.37396,3.06277 -3.06278,3.06277 z m 0,-18.42488 c -1.68863,0 -3.06262,-1.37413 -3.06262,-3.06278 0,-1.68864 1.37399,-3.06277 3.06262,-3.06277 1.68882,0 3.06278,1.37663 3.06278,3.06277 0,1.68865 -1.37396,3.06278 -3.06278,3.06278 z m 0,-18.42505 c -1.68863,0 -3.06262,-1.37396 -3.06262,-3.06261 0,-1.68881 1.37399,-3.06277 3.06262,-3.06277 1.68882,0 3.06278,1.37396 3.06278,3.06277 0,1.68865 -1.37396,3.06261 -3.06278,3.06261 z m 23.17395,348.50755 c -3.55407,0 -6.44537,-2.89129 -6.44537,-6.44787 0,-3.55658 2.8913,-6.44788 6.44537,-6.44788 3.55393,0 6.44523,2.8913 6.44523,6.44788 0,3.55658 -2.8913,6.44787 -6.44523,6.44787 z m 0,-340.17393 c -3.55407,0 -6.44537,-2.89131 -6.44537,-6.44788 0,-3.55642 2.8913,-6.44522 6.44537,-6.44522 3.55393,0 6.44523,2.8913 6.44523,6.44522 0,3.55408 -2.8913,6.44788 -6.44523,6.44788 z m 45.54102,208.11043 c -1.79111,0 -3.07043,-1.27933 -3.07043,-3.07044 0,-1.79111 1.27932,-3.07043 3.07043,-3.07043 1.79111,0 3.07043,1.27932 3.07043,3.07043 -0.25598,1.79111 -1.5353,3.07044 -3.07043,3.07044 z m 18.42239,0 c -1.7911,0 -3.07043,-1.27933 -3.07043,-3.07044 0,-1.79111 1.27933,-3.07043 3.07043,-3.07043 1.79108,0 3.07041,1.27932 3.07041,3.07043 -0.25595,1.79111 -1.53528,3.07044 -3.07041,3.07044 z m 18.64585,132.0635 c -3.55655,0 -6.44785,-2.89129 -6.44785,-6.44787 0,-3.55658 2.8913,-6.44788 6.44785,-6.44788 3.55392,0 6.44522,2.8913 6.44522,6.44788 0,3.55658 -2.8913,6.44787 -6.44522,6.44787 z m -3.29389,-135.13394 c 0,-1.79111 1.27933,-3.07043 3.07044,-3.07043 1.79092,0 3.07025,1.27932 3.07025,3.07043 -0.2558,1.79111 -1.53513,3.07044 -3.07025,3.07044 -1.79111,0 -3.07044,-1.27933 -3.07044,-3.07044 z m 3.29389,-205.03999 c -3.55655,0 -6.44785,-2.89131 -6.44785,-6.44788 0,-3.55642 2.8913,-6.44522 6.44785,-6.44522 3.55392,0 6.44522,2.8913 6.44522,6.44522 0,3.55408 -2.8913,6.44788 -6.44522,6.44788 z m 23.17383,341.68861 c -1.68866,0 -3.06263,-1.37396 -3.06263,-3.06262 0,-1.68881 1.37397,-3.06277 3.06263,-3.06277 1.68878,0 3.06277,1.37396 3.06277,3.06277 0,1.68866 -1.37399,3.06262 -3.06277,3.06262 z m 0,-18.41974 c -1.68866,0 -3.06263,-1.37396 -3.06263,-3.06277 0,-1.68863 1.37397,-3.06262 3.06263,-3.06262 1.68878,0 3.06277,1.37399 3.06277,3.06262 0,1.68881 -1.37399,3.06277 -3.06277,3.06277 z m 0,-18.42239 c -1.68866,0 -3.06263,-1.37396 -3.06263,-3.06277 0,-1.68863 1.37397,-3.0626 3.06263,-3.0626 1.68878,0 3.06277,1.37397 3.06277,3.0626 0,1.68881 -1.37399,3.06277 -3.06277,3.06277 z m 0,-18.42236 c -1.68866,0 -3.06263,-1.374 -3.06263,-3.06263 0,-1.68881 1.37397,-3.06277 3.06263,-3.06277 1.68878,0 3.06277,1.37396 3.06277,3.06277 0,1.68863 -1.37399,3.06263 -3.06277,3.06263 z m 0,-18.4224 c -1.68866,0 -3.06263,-1.37396 -3.06263,-3.06262 0,-1.68881 1.37397,-3.06277 3.06263,-3.06277 1.68878,0 3.06277,1.37396 3.06277,3.06277 0,1.68866 -1.37399,3.06262 -3.06277,3.06262 z m 0,-18.42239 c -1.68866,0 -3.06263,-1.37396 -3.06263,-3.06262 0,-1.68878 1.37397,-3.06278 3.06263,-3.06278 1.68878,0 3.06277,1.374 3.06277,3.06278 0,1.68866 -1.37399,3.06262 -3.06277,3.06262 z m 0,-18.42224 c -1.68866,0 -3.06263,-1.37396 -3.06263,-3.06275 0,-1.68866 1.37397,-3.06277 3.06263,-3.06277 1.68878,0 3.06277,1.37411 3.06277,3.06277 0,1.68879 -1.37399,3.06275 -3.06277,3.06275 z m 0,-18.42237 c -1.68866,0 -3.06263,-1.37399 -3.06263,-3.06277 0,-1.68866 1.37397,-3.06262 3.06263,-3.06262 1.68878,0 3.06277,1.37396 3.06277,3.06262 0,1.68878 -1.37399,3.06277 -3.06277,3.06277 z m 0,-18.42239 c -1.68866,0 -3.06263,-1.37396 -3.06263,-3.06262 0,-1.68881 1.37397,-3.06278 3.06263,-3.06278 1.68878,0 3.06277,1.37397 3.06277,3.06278 0,1.68866 -1.37399,3.06262 -3.06277,3.06262 z m 0,-18.42239 c -1.68866,0 -3.06263,-1.37397 -3.06263,-3.06263 0,-1.68878 1.37397,-3.06277 3.06263,-3.06277 1.68878,0 3.06277,1.37399 3.06277,3.06277 0,1.68866 -1.37399,3.06263 -3.06277,3.06263 z m 0,-18.4224 c -1.68866,0 -3.06263,-1.37396 -3.06263,-3.06259 0,-1.68881 1.37397,-3.06277 3.06263,-3.06277 1.68878,0 3.06277,1.37396 3.06277,3.06277 0,1.68863 -1.37399,3.06259 -3.06277,3.06259 z m 0,-18.42221 c -1.68866,0 -3.06263,-1.37414 -3.06263,-3.06277 0,-1.68866 1.37397,-3.06278 3.06263,-3.06278 1.68878,0 3.06277,1.37412 3.06277,3.06278 0,1.68881 -1.37399,3.06277 -3.06277,3.06277 z m 0,-18.42239 c -1.68866,0 -3.06263,-1.37396 -3.06263,-3.06278 0,-1.68866 1.37397,-3.06262 3.06263,-3.06262 1.68878,0 3.06277,1.37396 3.06277,3.06262 0,1.68882 -1.37399,3.06278 -3.06277,3.06278 z m 0,-18.42239 c -1.68866,0 -3.06263,-1.37397 -3.06263,-3.06261 0,-1.68881 1.37397,-3.06278 3.06263,-3.06278 1.68878,0 3.06277,1.37397 3.06277,3.06278 0,1.68864 -1.37399,3.06261 -3.06277,3.06261 z m 0,-18.42238 c -1.68866,0 -3.06263,-1.37398 -3.06263,-3.06263 0,-1.68879 1.37397,-3.06277 3.06263,-3.06277 1.68878,0 3.06277,1.37398 3.06277,3.06277 0,1.68865 -1.37399,3.06263 -3.06277,3.06263 z m 0,-18.42224 c -1.68866,0 -3.06263,-1.37412 -3.06263,-3.06276 0,-1.68865 1.37397,-3.06278 3.06263,-3.06278 1.68878,0 3.06277,1.37413 3.06277,3.06278 0,1.68864 -1.37399,3.06276 -3.06277,3.06276 z m 0,-18.41988 c -1.68866,0 -3.06263,-1.37398 -3.06263,-3.06262 0,-1.6888 1.37397,-3.06278 3.06263,-3.06278 1.68878,0 3.06277,1.37398 3.06277,3.06278 0,1.68864 -1.37399,3.06262 -3.06277,3.06262 z m 0,-18.41974 c -1.68866,0 -3.06263,-1.37396 -3.06263,-3.06277 0,-1.68865 1.37397,-3.06261 3.06263,-3.06261 1.68878,0 3.06277,1.37396 3.06277,3.06261 0,1.68881 -1.37399,3.06277 -3.06277,3.06277 z m 0,-18.42488 c -1.68866,0 -3.06263,-1.37413 -3.06263,-3.06278 0,-1.68864 1.37397,-3.06277 3.06263,-3.06277 1.68878,0 3.06277,1.37413 3.06277,3.06277 0,1.68865 -1.37399,3.06278 -3.06277,3.06278 z m 0,-18.42505 c -1.68866,0 -3.06263,-1.37396 -3.06263,-3.06261 0,-1.68881 1.37397,-3.06277 3.06263,-3.06277 1.68878,0 3.06277,1.37396 3.06277,3.06277 0,1.68865 -1.37399,3.06261 -3.06277,3.06261 z"
         id="path6617"
         style="fill:#0a6939" />
      <g
         id="path52_00000143584978543248714220000013956808027532830104_">
        <path
           class="st1"
           d="m 349.521,503.76672 c 0.2149,0.42215 0.36587,0.88019 0.36587,1.38422 v 0 h 12.23047 v 0 c 0,-0.50403 0.15094,-0.96207 0.36588,-1.38422 z"
           id="path6619"
           style="fill:#014f29" />
      </g>
      <g
         id="path52_00000152232672415790496580000013697655786419264386_">
        <path
           class="st1"
           d="m 330.3559,503.76672 c 0.2149,0.42215 0.36587,0.88019 0.36587,1.38422 v 0 h 12.23047 v 0 c 0,-0.50403 0.15094,-0.96207 0.36588,-1.38422 z"
           id="path6622"
           style="fill:#014f29" />
      </g>
      <g
         id="path52_00000070078066917241409260000011080093754251881089_">
        <path
           class="st1"
           d="m 312.35468,503.76672 c 0.2149,0.42215 0.36587,0.88019 0.36587,1.38422 v 0 h 12.23044 v 0 c 0,-0.50403 0.15097,-0.96207 0.3659,-1.38422 z"
           id="path6625"
           style="fill:#014f29" />
      </g>
      <g
         id="path4_00000039826233149783957710000007491355482045735865_">
        <path
           class="st2"
           d="m 296.21661,156.5616 c 3.55402,0 6.44532,-2.89128 6.44532,-6.44782 0,-3.55654 -2.8913,-6.44526 -6.44532,-6.44526 -3.55398,0 -6.44528,2.89128 -6.44528,6.44526 0,3.55398 2.8913,6.44782 6.44528,6.44782 z"
           id="path6628"
           style="fill:none" />
      </g>
      <g
         id="path6_00000086655710053458440670000012525504495437543338_">
        <path
           class="st2"
           d="m 378.82587,496.73547 c 3.55401,0 6.44531,-2.89129 6.44531,-6.44781 0,-3.55655 -2.8913,-6.44782 -6.44531,-6.44782 -3.55655,0 -6.44785,2.89127 -6.44785,6.44782 0,3.55652 2.8913,6.44781 6.44785,6.44781 z"
           id="path6631"
           style="fill:none" />
      </g>
      <g
         id="path8_00000082350931165226002360000001435401364507089813_">
        <path
           class="st2"
           d="m 378.82587,156.5616 c 3.55401,0 6.44531,-2.89128 6.44531,-6.44782 0,-3.55654 -2.8913,-6.44526 -6.44531,-6.44526 -3.55655,0 -6.44785,2.89128 -6.44785,6.44526 0,3.55398 2.8913,6.44782 6.44785,6.44782 z"
           id="path6634"
           style="fill:none" />
      </g>
      <g
         id="circle10_00000003100089887615852400000013831523009201246614_">
        <ellipse
           class="st2"
           cx="296.21661"
           cy="490.28741"
           rx="6.445292"
           ry="6.4452586"
           id="ellipse6637"
           style="fill:none" />
      </g>
      <g
         id="path12_00000003818219675505870440000011042002305011629186_">
        <path
           class="st1"
           d="m 413.67499,160.49683 v -12.23552 0 c -0.50406,0 -0.96207,-0.15096 -1.38425,-0.36589 v 12.96473 c 0.42218,-0.21493 0.88019,-0.36332 1.38425,-0.36332 z"
           id="path6640"
           style="fill:#014f29" />
      </g>
      <g
         id="path14_00000135673763708533274640000007099374267294922667_">
        <path
           class="st1"
           d="m 413.67499,178.91917 v -12.2355 0 c -0.50406,0 -0.96207,-0.15097 -1.38425,-0.36589 v 12.96474 c 0.42218,-0.21238 0.88019,-0.36335 1.38425,-0.36335 z"
           id="path6643"
           style="fill:#014f29" />
      </g>
      <g
         id="path16_00000178926257109623295430000002004613697790030728_">
        <path
           class="st1"
           d="m 413.67499,197.34154 v -12.23296 0 c -0.50406,0 -0.96207,-0.15095 -1.38425,-0.36589 v 12.96217 c 0.42218,-0.21493 0.88019,-0.36334 1.38425,-0.36334 z"
           id="path6646"
           style="fill:#014f29" />
      </g>
      <g
         id="path18_00000007392818054180931410000008427691047216642973_">
        <path
           class="st1"
           d="m 413.67499,215.76132 v -12.23039 0 c -0.50406,0 -0.96207,-0.15097 -1.38425,-0.36589 v 12.95962 c 0.42218,-0.21493 0.88019,-0.36334 1.38425,-0.36334 z"
           id="path6649"
           style="fill:#014f29" />
      </g>
      <g
         id="path20_00000150080362346527859770000003546247194715766155_">
        <path
           class="st1"
           d="m 413.67499,234.18369 v -12.23296 0 c -0.50406,0 -0.96207,-0.15096 -1.38425,-0.36588 v 12.96218 c 0.42218,-0.21494 0.88019,-0.36333 1.38425,-0.36333 z"
           id="path6652"
           style="fill:#014f29" />
      </g>
      <g
         id="path22_00000095299415964777607990000013670862588782539655_">
        <path
           class="st1"
           d="m 413.67499,252.60603 v -12.23295 0 c -0.50406,0 -0.96207,-0.15097 -1.38425,-0.36589 v 12.96217 c 0.42218,-0.21492 0.88019,-0.36333 1.38425,-0.36333 z"
           id="path6655"
           style="fill:#014f29" />
      </g>
      <g
         id="path24_00000093158326086556562490000004243862728854278795_">
        <path
           class="st1"
           d="m 413.67499,271.02838 v -12.23294 0 c -0.50406,0 -0.96207,-0.15097 -1.38425,-0.36587 v 12.96215 c 0.42218,-0.21493 0.88019,-0.36334 1.38425,-0.36334 z"
           id="path6658"
           style="fill:#014f29" />
      </g>
      <g
         id="path26_00000088846062804871765840000015125502378880430481_">
        <path
           class="st1"
           d="m 413.67499,289.45074 v -12.23297 0 c -0.50406,0 -0.96207,-0.15094 -1.38425,-0.36587 v 12.96219 c 0.42218,-0.21494 0.88019,-0.36335 1.38425,-0.36335 z"
           id="path6661"
           style="fill:#014f29" />
      </g>
      <g
         id="path28_00000092440343381800144640000016708198129007240614_">
        <path
           class="st1"
           d="m 413.67499,307.87311 v -12.23294 0 c -0.50406,0 -0.96207,-0.15097 -1.38425,-0.36591 v 12.96219 c 0.42218,-0.21494 0.88019,-0.36334 1.38425,-0.36334 z"
           id="path6664"
           style="fill:#014f29" />
      </g>
      <g
         id="path30_00000151512495475837330740000004815127375735708306_">
        <path
           class="st1"
           d="m 413.67499,326.29544 v -12.23297 0 c -0.50406,0 -0.96207,-0.15094 -1.38425,-0.36588 v 12.96216 c 0.42218,-0.21493 0.88019,-0.36331 1.38425,-0.36331 z"
           id="path6667"
           style="fill:#014f29" />
      </g>
      <g
         id="path32_00000145763788848820719250000017923651286957430450_">
        <path
           class="st1"
           d="m 413.67499,344.7178 v -12.23294 0 c -0.50406,0 -0.96207,-0.15097 -1.38425,-0.3659 v 12.96219 c 0.42218,-0.21497 0.88019,-0.36335 1.38425,-0.36335 z"
           id="path6670"
           style="fill:#014f29" />
      </g>
      <g
         id="path34_00000015327607662789984810000002440490995645866146_">
        <path
           class="st1"
           d="m 413.67499,363.14017 v -12.233 0 c -0.50406,0 -0.96207,-0.15094 -1.38425,-0.36588 v 12.96219 c 0.42218,-0.21491 0.88019,-0.36331 1.38425,-0.36331 z"
           id="path6673"
           style="fill:#014f29" />
      </g>
      <g
         id="path36_00000058563030483060003130000011831770555722207109_">
        <path
           class="st1"
           d="m 413.67499,381.5625 v -12.23294 0 c -0.50406,0 -0.96207,-0.15097 -1.38425,-0.36591 v 12.96219 c 0.42218,-0.21496 0.88019,-0.36334 1.38425,-0.36334 z"
           id="path6676"
           style="fill:#014f29" />
      </g>
      <g
         id="path38_00000178168212278618256650000003443947996733910702_">
        <path
           class="st1"
           d="m 413.67499,399.98486 v -12.23294 0 c -0.50406,0 -0.96207,-0.15097 -1.38425,-0.3659 v 12.96219 c 0.42218,-0.21494 0.88019,-0.36335 1.38425,-0.36335 z"
           id="path6679"
           style="fill:#014f29" />
      </g>
      <g
         id="path40_00000097464201371799885860000007000197173611427516_">
        <path
           class="st1"
           d="m 413.67499,418.40723 v -12.23297 0 c -0.50406,0 -0.96207,-0.15098 -1.38425,-0.36588 v 12.96216 c 0.42218,-0.21494 0.88019,-0.36331 1.38425,-0.36331 z"
           id="path6682"
           style="fill:#014f29" />
      </g>
      <g
         id="path42_00000122715188688051810600000010928226657508878213_">
        <path
           class="st1"
           d="m 413.67499,436.82959 v -12.23297 0 c -0.50406,0 -0.96207,-0.15097 -1.38425,-0.36588 v 12.96216 c 0.42218,-0.21493 0.88019,-0.36331 1.38425,-0.36331 z"
           id="path6685"
           style="fill:#014f29" />
      </g>
      <g
         id="path44_00000026147188987679231130000011125957591935877282_">
        <path
           class="st1"
           d="m 413.67499,455.25195 v -12.23297 0 c -0.50406,0 -0.96207,-0.15094 -1.38425,-0.3659 v 12.96218 c 0.42218,-0.21493 0.88019,-0.36331 1.38425,-0.36331 z"
           id="path6688"
           style="fill:#014f29" />
      </g>
      <g
         id="path46_00000117675329333262838250000012524904576780258712_">
        <path
           class="st1"
           d="m 413.67499,473.67429 v -12.23294 0 c -0.50406,0 -0.96207,-0.15098 -1.38425,-0.36588 v 12.96216 c 0.42218,-0.21494 0.88019,-0.36334 1.38425,-0.36334 z"
           id="path6691"
           style="fill:#014f29" />
      </g>
      <g
         id="path48_00000047026170012549125730000000174180951257156000_">
        <path
           class="st1"
           d="m 413.67499,492.09409 v -12.23041 0 c -0.50406,0 -0.96207,-0.15094 -1.38425,-0.36588 v 12.9596 c 0.42218,-0.21494 0.88019,-0.36331 1.38425,-0.36331 z"
           id="path6694"
           style="fill:#014f29" />
      </g>
      <g
         id="path50_00000073702123703845911510000001706918899658012094_">
        <path
           class="st1"
           d="m 413.67499,498.28351 v 0 c -0.50406,0 -0.96207,-0.151 -1.38425,-0.36591 v 4.03498 c 0,1.00045 -0.8111,1.81408 -1.81409,1.81408 h -51.80288 c 0.21493,0.42221 0.3659,0.88019 0.3659,1.38425 v 0 H 410.776 c 1.60175,0 2.90152,-1.29977 2.90152,-2.90152 v -3.96588 h -0.003 z"
           id="path6697"
           style="fill:#014f29" />
      </g>
      <g
         id="path52_00000101800346472074078070000017144371901682255243_">
        <path
           class="st1"
           d="m 321.82892,503.76416 c 0.21493,0.42215 0.36587,0.88019 0.36587,1.38422 v 0 h 12.23047 v 0 c 0,-0.50403 0.15097,-0.96207 0.36588,-1.38422 z"
           id="path6700"
           style="fill:#014f29" />
      </g>
      <g
         id="path54_00000065046776422159132740000004216052092497220521_">
        <path
           class="st1"
           d="m 340.24878,503.76416 c 0.21493,0.42215 0.36591,0.88019 0.36591,1.38422 v 0 h 12.23556 v 0 c 0,-0.50403 0.15097,-0.96207 0.36588,-1.38422 z"
           id="path6703"
           style="fill:#014f29" />
      </g>
      <g
         id="path56_00000077318936653000100460000013004961384257030029_">
        <path
           class="st1"
           d="m 412.8255,136.09999 -1.06696,1.06441 c 0.32749,0.32751 0.5322,0.78039 0.5322,1.28189 v 3.98639 c 0.42218,-0.21492 0.88019,-0.36589 1.38425,-0.36589 v 0 -3.91475 c 0,-0.80086 -0.32239,-1.52496 -0.84949,-2.05205 z"
           id="path6706"
           style="fill:#014f29" />
      </g>
      <g
         id="path62_00000143590991184570383620000008253248065080720533_">
        <path
           class="st1"
           d="m 316.36871,503.76416 h -51.80542 c -0.50149,0 -0.95437,-0.20218 -1.28189,-0.53223 l -1.06695,1.06437 c 0.52453,0.52456 1.25119,0.84948 2.05206,0.84948 h 51.73886 v 0 c -0.003,-0.50149 0.14841,-0.95947 0.36334,-1.38168 z"
           id="path6709"
           style="fill:#014f29" />
      </g>
      <g
         id="path70_00000000218585690311778910000013479596415337536419_">
        <path
           class="st3"
           d="M 410.776,135.25052 H 264.26651 c -1.60175,0 -2.90155,1.2998 -2.90155,2.90152 v 3.91987 0 c 0.50406,0 0.96207,0.15096 1.38425,0.3659 v -3.98896 c 0,-1.00044 0.81109,-1.8141 1.81408,-1.8141 h 145.9159 c 0.50149,0 0.9544,0.20213 1.28189,0.53221 l 1.06698,-1.06441 c -0.5271,-0.52708 -1.25119,-0.85203 -2.05206,-0.85203 z"
           id="path6712"
           style="fill:#338661" />
      </g>
      <g
         id="path72_00000041979296216583100090000005594702194476605338_">
        <path
           class="st3"
           d="m 261.36496,166.68622 v 12.23552 0 c 0.50406,0 0.96207,0.15095 1.38425,0.36589 v -12.96474 c -0.42218,0.21237 -0.88019,0.36333 -1.38425,0.36333 z"
           id="path6715"
           style="fill:#338661" />
      </g>
      <g
         id="path74_00000055698336740518915780000001698986587656044443_">
        <path
           class="st3"
           d="m 261.36496,185.10858 v 12.23296 0 c 0.50406,0 0.96207,0.15095 1.38425,0.36589 v -12.96218 c -0.42218,0.21492 -0.88019,0.36333 -1.38425,0.36333 z"
           id="path6718"
           style="fill:#338661" />
      </g>
      <g
         id="path76_00000008129921850287818700000003614945449831377582_">
        <path
           class="st3"
           d="m 261.36496,203.53093 v 12.23039 0 c 0.50406,0 0.96207,0.15097 1.38425,0.36589 V 203.1676 c -0.42218,0.21237 -0.88019,0.36333 -1.38425,0.36333 z"
           id="path6721"
           style="fill:#338661" />
      </g>
      <g
         id="path78_00000054976241179188124620000016937104895984520861_">
        <path
           class="st3"
           d="m 261.36496,221.95073 v 12.23294 0 c 0.50406,0 0.96207,0.15097 1.38425,0.36589 v -12.96217 c -0.42218,0.21238 -0.88019,0.36334 -1.38425,0.36334 z"
           id="path6724"
           style="fill:#338661" />
      </g>
      <g
         id="path80_00000064332017091386947740000013016255604172272545_">
        <path
           class="st3"
           d="m 261.36496,240.37309 v 12.23296 0 c 0.50406,0 0.96207,0.15095 1.38425,0.36587 v -12.96217 c -0.42218,0.21237 -0.88019,0.36334 -1.38425,0.36334 z"
           id="path6727"
           style="fill:#338661" />
      </g>
      <g
         id="path82_00000141440144732772109020000006589489891705828773_">
        <path
           class="st3"
           d="m 261.36496,258.79544 v 12.23294 0 c 0.50406,0 0.96207,0.15097 1.38425,0.36591 v -12.96216 c -0.42218,0.21234 -0.88019,0.36331 -1.38425,0.36331 z"
           id="path6730"
           style="fill:#338661" />
      </g>
      <g
         id="path84_00000059996880751410468920000012757197952540341176_">
        <path
           class="st3"
           d="m 261.36496,277.2178 v 12.23294 0 c 0.50406,0 0.96207,0.15098 1.38425,0.36588 v -12.96216 c -0.42218,0.21237 -0.88019,0.36334 -1.38425,0.36334 z"
           id="path6733"
           style="fill:#338661" />
      </g>
      <g
         id="path86_00000129899962396885544940000000255417094801508755_">
        <path
           class="st3"
           d="m 261.36496,295.64017 v 12.23294 0 c 0.50406,0 0.96207,0.15094 1.38425,0.36587 v -12.96216 c -0.42218,0.21238 -0.88019,0.36335 -1.38425,0.36335 z"
           id="path6736"
           style="fill:#338661" />
      </g>
      <g
         id="path88_00000078018753094351673130000013997278483001240193_">
        <path
           class="st3"
           d="m 261.36496,314.0625 v 12.23297 0 c 0.50406,0 0.96207,0.15097 1.38425,0.36591 v -12.96219 c -0.42218,0.21237 -0.88019,0.36331 -1.38425,0.36331 z"
           id="path6739"
           style="fill:#338661" />
      </g>
      <g
         id="path90_00000124884223964850853490000002956496326383383431_">
        <path
           class="st3"
           d="m 261.36496,332.48486 v 12.23294 0 c 0.50406,0 0.96207,0.15094 1.38425,0.36588 v -12.96216 c -0.42218,0.21237 -0.88019,0.36334 -1.38425,0.36334 z"
           id="path6742"
           style="fill:#338661" />
      </g>
      <g
         id="path92_00000119806097310248553940000003279847172599527859_">
        <path
           class="st3"
           d="m 261.36496,350.9072 v 12.233 0 c 0.50406,0 0.96207,0.15094 1.38425,0.36587 v -12.96216 c -0.42218,0.21235 -0.88019,0.36329 -1.38425,0.36329 z"
           id="path6745"
           style="fill:#338661" />
      </g>
      <g
         id="path94_00000090275675030421338790000001541538646997898373_">
        <path
           class="st3"
           d="m 261.36496,369.32956 v 12.23294 0 c 0.50406,0 0.96207,0.15097 1.38425,0.36591 v -12.96219 c -0.42218,0.2124 -0.88019,0.36334 -1.38425,0.36334 z"
           id="path6748"
           style="fill:#338661" />
      </g>
      <g
         id="path96_00000014613774280041517410000010566905428255623097_">
        <path
           class="st3"
           d="m 261.36496,387.75192 v 12.23294 0 c 0.50406,0 0.96207,0.15097 1.38425,0.36588 v -12.96216 c -0.42218,0.21237 -0.88019,0.36334 -1.38425,0.36334 z"
           id="path6751"
           style="fill:#338661" />
      </g>
      <g
         id="path98_00000005962659077251316650000009413034984267851685_">
        <path
           class="st3"
           d="m 261.36496,406.17426 v 12.23297 0 c 0.50406,0 0.96207,0.15097 1.38425,0.36587 v -12.96216 c -0.42218,0.21238 -0.88019,0.36332 -1.38425,0.36332 z"
           id="path6754"
           style="fill:#338661" />
      </g>
      <g
         id="path100_00000169558755761010432120000013987139388556959872_">
        <path
           class="st3"
           d="m 261.36496,424.59662 v 12.23297 0 c 0.50406,0 0.96207,0.15094 1.38425,0.36588 v -12.96216 c -0.42218,0.21234 -0.88019,0.36331 -1.38425,0.36331 z"
           id="path6757"
           style="fill:#338661" />
      </g>
      <g
         id="path102_00000029758618219900796360000010238327230031230597_">
        <path
           class="st3"
           d="m 261.36496,443.01898 v 12.23297 0 c 0.50406,0 0.96207,0.15097 1.38425,0.36588 v -12.96219 c -0.42218,0.2124 -0.88019,0.36334 -1.38425,0.36334 z"
           id="path6760"
           style="fill:#338661" />
      </g>
      <g
         id="path104_00000060736931508992564010000001644905947550365616_">
        <path
           class="st3"
           d="m 261.36496,461.44135 v 12.23294 0 c 0.50406,0 0.96207,0.15097 1.38425,0.3659 V 461.078 c -0.42218,0.21241 -0.88019,0.36335 -1.38425,0.36335 z"
           id="path6763"
           style="fill:#338661" />
      </g>
      <g
         id="path106_00000051362887799202924210000001327667536992883352_">
        <path
           class="st3"
           d="m 261.36496,479.86368 v 12.23041 0 c 0.50406,0 0.96207,0.15097 1.38425,0.3659 v -12.95962 c -0.42218,0.21237 -0.88019,0.36331 -1.38425,0.36331 z"
           id="path6766"
           style="fill:#338661" />
      </g>
      <g
         id="path108_00000025428985972372956880000017227179791009802673_">
        <path
           class="st3"
           d="m 261.36496,148.26131 v 12.23552 0 c 0.50406,0 0.96207,0.15095 1.38425,0.36589 v -12.9673 c -0.42218,0.21493 -0.88019,0.36589 -1.38425,0.36589 z"
           id="path6769"
           style="fill:#338661" />
      </g>
      <g
         id="path112_00000022527206878281284570000017856974623654705546_">
        <path
           class="st3"
           d="m 262.21445,504.29886 1.06695,-1.06439 c -0.32751,-0.32749 -0.53219,-0.7804 -0.53219,-1.28189 v -4.03244 c -0.42218,0.21493 -0.88019,0.36587 -1.38425,0.36587 v 3.96594 c 0,0.79572 0.32495,1.5224 0.84949,2.04691 z"
           id="path6772"
           style="fill:#338661" />
      </g>
      <g
         id="yellow_holes_00000023999677472239888700000000095876135149008016_">
        <g
           id="circle119_00000097495884702735901430000018441513282283154860_">
          <path
             class="st4"
             d="m 296.21722,501.84897 c -6.37664,0 -11.56393,-5.18729 -11.56393,-11.56143 0,-6.37418 5.18729,-11.56147 11.56393,-11.56147 6.37418,0 11.56147,5.18729 11.56147,11.56147 0,6.37414 -5.18729,11.56143 -11.56147,11.56143 z m 0,-18.00556 c -3.55563,0 -6.44662,2.891 -6.44662,6.44413 0,3.55313 2.89099,6.44412 6.44662,6.44412 3.55314,0 6.44413,-2.89099 6.44413,-6.44412 0,-3.55313 -2.89099,-6.44413 -6.44413,-6.44413 z"
             id="path6775"
             style="fill:#f8e935" />
        </g>
        <g
           id="circle125_00000039856741804900028040000000052832001883237289_">
          <path
             class="st4"
             d="m 378.82397,501.84897 c -6.37664,0 -11.56393,-5.18729 -11.56393,-11.56143 0,-6.37418 5.18729,-11.56147 11.56393,-11.56147 6.37418,0 11.56147,5.18729 11.56147,11.56147 0,6.37414 -5.18729,11.56143 -11.56147,11.56143 z m 0,-18.00556 c -3.55563,0 -6.44662,2.891 -6.44662,6.44413 0,3.55313 2.89099,6.44412 6.44662,6.44412 3.55317,0 6.44413,-2.89099 6.44413,-6.44412 0,-3.55313 -2.89096,-6.44413 -6.44413,-6.44413 z"
             id="path6778"
             style="fill:#f8e935" />
        </g>
        <g
           id="circle131_00000100343507649060273260000017462988919633554106_">
          <path
             class="st4"
             d="m 296.21722,161.67583 c -6.37664,0 -11.56393,-5.18729 -11.56393,-11.5627 0,-6.37541 5.18729,-11.56145 11.56393,-11.56145 6.37418,0 11.56147,5.18604 11.56147,11.56145 0,6.37541 -5.18729,11.5627 -11.56147,11.5627 z m 0,-18.00684 c -3.55563,0 -6.44662,2.89099 -6.44662,6.44414 0,3.55438 2.89099,6.44537 6.44662,6.44537 3.55314,0 6.44413,-2.89099 6.44413,-6.44537 0,-3.55315 -2.89099,-6.44414 -6.44413,-6.44414 z"
             id="path6781"
             style="fill:#f8e935" />
        </g>
        <g
           id="circle137_00000170275818957283041870000014752435485413154698_">
          <path
             class="st4"
             d="m 378.82397,161.67583 c -6.37664,0 -11.56393,-5.18729 -11.56393,-11.5627 0,-6.37541 5.18729,-11.56145 11.56393,-11.56145 6.37418,0 11.56147,5.18604 11.56147,11.56145 0,6.37541 -5.18729,11.5627 -11.56147,11.5627 z m 0,-18.00684 c -3.55563,0 -6.44662,2.89099 -6.44662,6.44414 0,3.55438 2.89099,6.44537 6.44662,6.44537 3.55317,0 6.44413,-2.89099 6.44413,-6.44537 0,-3.55315 -2.89096,-6.44414 -6.44413,-6.44414 z"
             id="path6784"
             style="fill:#f8e935" />
        </g>
      </g>
      <g
         id="usb_00000081636086656777615030000012290889641433686198_">
        <g
           id="path145_00000181786582422674088470000014575832215821299885_">
          <path
             class="st5"
             d="m 361.45505,164.26573 h -47.87018 c -0.80084,0 -1.45075,-0.6499 -1.45075,-1.45076 v -35.65749 c 0,-0.80086 0.64991,-1.45076 1.45075,-1.45076 h 47.87018 c 0.80087,0 1.45077,0.6499 1.45077,1.45076 v 35.65749 c 0,0.80086 -0.6499,1.45076 -1.45077,1.45076 z"
             id="path6788"
             style="fill:#353b45" />
        </g>
        <g
           id="path147_00000152971687696749237370000007048253688930131641_">
          <path
             class="st6"
             d="m 315.76999,120.74548 c -0.63968,0 -1.20258,0.41961 -1.38937,1.03114 l -0.79575,2.63541 -1.45075,1.45076 v 36.95218 c 0,0.80086 0.64991,1.45076 1.45075,1.45076 h 8.85303 c 0.4017,0 0.72409,-0.32495 0.72409,-0.7241 v -2.11858 c 0,-0.52963 -0.28913,-1.01834 -0.75482,-1.27165 l -4.92798,-2.69171 c -0.4657,-0.2533 -0.75482,-0.74201 -0.75482,-1.27166 v -2.11601 h 3.21881 v -2.44351 h 4.97406 v 2.4384 h 2.92712 v 5.04312 c 0,0.80086 0.6499,1.45076 1.45074,1.45076 h 2.35401 v -2.61496 h 11.74173 v 2.61496 h 2.35397 c 0.80087,0 1.45078,-0.6499 1.45078,-1.45076 v -5.04312 h 2.92709 v -2.4384 h 4.97406 v 2.4384 h 3.21881 v 2.11601 c 0,0.52965 -0.28912,1.01834 -0.75479,1.27165 l -4.92801,2.69428 c -0.46567,0.25331 -0.75479,0.742 -0.75479,1.27165 v 2.11858 c 0,0.4017 0.32495,0.72409 0.72409,0.72409 h 8.853 c 0.80087,0 1.45077,-0.64989 1.45077,-1.45076 v -36.94962 l -1.45077,-1.45076 -0.79575,-2.63541 c -0.18677,-0.61153 -0.74969,-1.03114 -1.38934,-1.03114 z"
             id="path6791"
             style="fill:#dbddda" />
        </g>
        <g
           id="path151_00000114782433401577870770000016086213508226017946_"
           transform="translate(0,-14.894655)">
          <path
             class="st6"
             d="m 313.72562,142.62788 c -0.63712,-0.84947 -1.28446,-1.70662 -1.86527,-2.6866 -0.59363,-0.96972 -1.02347,-2.12623 -1.23074,-3.20855 l -0.005,-0.0333 c -0.0921,-0.47079 0.2175,-0.92622 0.68829,-1.01577 0.43754,-0.0845 0.86228,0.1791 0.99277,0.59359 0.57315,1.84992 1.88831,3.17275 3.35697,4.67469 0.49896,0.50149 0.49639,1.31515 -0.005,1.81408 -0.5015,0.49893 -1.31516,0.49639 -1.81412,0 -0.0384,-0.0384 -0.0844,-0.0921 -0.11767,-0.13305 v -0.005 z"
             id="path6794"
             style="fill:#dbddda" />
        </g>
        <g
           id="path153_00000180337131454478364710000003632262547771384721_"
           transform="translate(0,-14.894655)">
          <path
             class="st6"
             d="m 359.37997,140.95197 c 1.47126,-1.50194 2.78385,-2.82477 3.35697,-4.67469 0.14331,-0.45799 0.62945,-0.71385 1.08743,-0.57057 0.42475,0.13304 0.67551,0.5629 0.59619,0.9902 l -0.008,0.0358 c -0.20981,1.07975 -0.63711,2.23883 -1.23071,3.20855 -0.58081,0.97998 -1.22818,1.83713 -1.8653,2.6866 -0.42471,0.56546 -1.22815,0.68061 -1.79617,0.25586 -0.56546,-0.42473 -0.6806,-1.22815 -0.25589,-1.79617 0.0307,-0.0435 0.0768,-0.0972 0.11517,-0.1356 z"
             id="path6797"
             style="fill:#dbddda" />
        </g>
      </g>
    </g>
    <path
       class="st6"
       d="m 88.51399,99.347672 h -7.399441 c -0.299982,0 -0.599964,-0.299982 -0.599964,-0.599965 v -4.499649 c 0,-0.299982 0.299982,-0.599964 0.599964,-0.599964 h 7.399441 c 0.299971,0 0.599953,0.299982 0.599953,0.599964 v 4.499649 c -0.09999,0.299983 -0.29997,0.599965 -0.599953,0.599965 z"
       id="path6802"
       style="fill:#dbddda;stroke-width:0.3908" />
    <rect
       x="99.017899"
       y="37.929276"
       class="st7"
       width="11.234741"
       height="8.2568674"
       id="rect6810"
       style="fill:#2b2d2f;stroke-width:0.465751" />
    <rect
       x="110.55837"
       y="26.482626"
       class="st7"
       width="4.2996764"
       height="7.0994649"
       id="rect6814"
       style="fill:#2b2d2f;stroke-width:0.3908" />
    <rect
       x="79.555878"
       y="24.367218"
       class="st8"
       width="4.2996764"
       height="2.7997899"
       id="rect6818"
       style="fill:#e9f5fc;stroke-width:0.3908" />
    <path
       class="st9"
       d="m 83.835638,40.417684 h 7.399442 c 0.299982,0 0.599964,0.299974 0.599964,0.599952 v 10.199236 c 0,0.299974 -0.299982,0.599952 -0.599964,0.599952 h -7.399442 c -0.29997,0 -0.599948,-0.299978 -0.599948,-0.599952 V 41.01764 c 0,-0.299982 0.299978,-0.599956 0.599948,-0.599956 z"
       id="path6822"
       style="fill:#cdcbcb;stroke-width:0.3908" />
    <path
       class="st10"
       d="m 87.535359,41.11763 v 0 c 1.999857,0 3.499744,1.599881 3.499744,3.499737 v 2.799786 c 0,1.999853 -1.599888,3.499744 -3.499744,3.499744 v 0 c -1.999845,0 -3.499729,-1.599881 -3.499729,-3.499744 v -2.799786 c -0.100001,-1.899856 1.499884,-3.499737 3.499729,-3.499737 z"
       id="path6826"
       style="fill:#ffffff;stroke-width:0.3908" />
    <path
       class="st10"
       d="m 83.23569,41.01764 v 1.099915 c 0,0.499959 0.599948,0.799941 0.999921,0.399968 l 1.099911,-1.09991 c 0.399972,-0.399973 0.100001,-0.999929 -0.399957,-0.999929 h -1.099927 c -0.29997,0 -0.599948,0.299974 -0.599948,0.599956 z"
       id="path6830"
       style="fill:#ffffff;stroke-width:0.3908" />
    <path
       class="st10"
       d="m 91.23508,40.417684 h -1.099911 c -0.499963,0 -0.799945,0.599952 -0.399972,0.999921 l 1.099914,1.099918 c 0.399969,0.399973 0.999933,0.09999 0.999933,-0.399968 V 41.017636 C 91.735042,40.717658 91.535062,40.417684 91.23508,40.417684 Z"
       id="path6834"
       style="fill:#ffffff;stroke-width:0.3908" />
    <path
       class="st10"
       d="m 91.735042,51.216872 v -1.099919 c 0,-0.499963 -0.599952,-0.799937 -0.999921,-0.399972 l -0.999924,1.099918 c -0.399973,0.399973 -0.09999,0.999929 0.399972,0.999929 h 1.099911 c 0.299982,-0.09999 0.499962,-0.299974 0.499962,-0.599956 z"
       id="path6838"
       style="fill:#ffffff;stroke-width:0.3908" />
    <path
       class="st10"
       d="m 83.835638,51.716834 h 1.099927 c 0.499958,0 0.799929,-0.599953 0.399957,-0.999925 L 84.235611,49.61699 C 83.835638,49.217018 83.23569,49.517 83.23569,50.016963 v 1.099918 c 0,0.399973 0.299978,0.599953 0.599948,0.599953 z"
       id="path6842"
       style="fill:#ffffff;stroke-width:0.3908" />
    <path
       class="st7"
       d="m 112.04918,45.019433 v -5.999556 c 0,-0.299975 0.29997,-0.599953 0.59995,-0.599953 h 4.49966 c 0.29997,0 0.59995,0.299978 0.59995,0.599953 v 5.999556 c 0,0.299974 -0.29998,0.599948 -0.59995,0.599948 h -4.49966 c -0.39997,-0.09999 -0.59995,-0.299974 -0.59995,-0.599948 z"
       id="path6848"
       style="fill:#2b2d2f;stroke-width:0.3908" />
    <circle
       class="st11"
       cx="81.031761"
       cy="25.839308"
       r="0.69994771"
       id="circle6852"
       style="fill:#57af39;stroke-width:0.3908" />
    <rect
       x="100.45316"
       y="49.98761"
       class="st6"
       width="5.6995726"
       height="4.2996764"
       id="rect6856"
       style="fill:#dbddda;stroke-width:0.3908" />
    <rect
       x="101.45433"
       y="30.281492"
       class="st6"
       width="5.6995707"
       height="4.2996764"
       id="rect6860"
       style="fill:#dbddda;stroke-width:0.3908" />
    <rect
       x="102.15427"
       y="30.281492"
       class="st12"
       width="4.2996764"
       height="4.2996764"
       id="rect6864"
       style="fill:#958763;stroke-width:0.3908" />
    <rect
       x="101.15309"
       y="49.98761"
       class="st12"
       width="4.2996764"
       height="4.2996764"
       id="rect6868"
       style="fill:#958763;stroke-width:0.3908" />
    <circle
       class="st13"
       cx="81.007759"
       cy="33.899681"
       r="1.5142875"
       id="circle6880"
       style="fill:#99906c;stroke-width:0.49319" />
    <path
       class="st6"
       d="M 112.72938,133.93118 H 83.031609 c -0.299971,0 -0.599953,-0.29997 -0.599953,-0.59995 v -27.19795 c 0,-0.29998 0.299982,-0.59995 0.599953,-0.59995 h 29.697771 c 0.29998,0 0.59996,0.29998 0.59996,0.59995 v 27.19795 c 0,0.39997 -0.29998,0.59995 -0.59996,0.59995 z"
       id="path6884"
       style="fill:#dbddda;stroke-width:0.3908" />
    <rect
       x="97.558342"
       y="59.956886"
       class="st6"
       width="1.0999159"
       height="2.0998409"
       id="rect6917"
       style="fill:#dbddda;stroke-width:0.3908" />
    <rect
       x="97.558342"
       y="60.256851"
       class="st7"
       width="1.0999159"
       height="1.3998964"
       id="rect6921"
       style="fill:#2b2d2f;stroke-width:0.3908" />
    <rect
       x="95.595184"
       y="59.956886"
       class="st6"
       width="1.0999159"
       height="2.0998409"
       id="rect6941"
       style="fill:#dbddda;stroke-width:0.3908" />
    <rect
       x="95.595184"
       y="60.256851"
       class="st7"
       width="1.0999159"
       height="1.3998964"
       id="rect6945"
       style="fill:#2b2d2f;stroke-width:0.3908" />
    <rect
       x="87.375557"
       y="31.695585"
       class="st6"
       width="2.0998428"
       height="1.0999178"
       id="rect6949"
       style="fill:#dbddda;stroke-width:0.3908" />
    <rect
       x="87.775528"
       y="31.695585"
       class="st7"
       width="1.3998945"
       height="1.0999178"
       id="rect6953"
       style="fill:#2b2d2f;stroke-width:0.3908" />
    <rect
       x="87.34816"
       y="29.480951"
       class="st6"
       width="2.0998428"
       height="1.0999178"
       id="rect6957"
       style="fill:#dbddda;stroke-width:0.3908" />
    <rect
       x="87.64814"
       y="29.480951"
       class="st7"
       width="1.3998945"
       height="1.0999178"
       id="rect6961"
       style="fill:#2b2d2f;stroke-width:0.3908" />
    <rect
       x="45.300602"
       y="-97.886368"
       class="st6"
       width="2.0998409"
       height="1.0999178"
       id="rect6981"
       style="fill:#dbddda;stroke-width:0.3908"
       transform="rotate(90)" />
    <rect
       x="45.600582"
       y="-97.886368"
       class="st13"
       width="1.3998964"
       height="1.0999178"
       id="rect6985"
       style="fill:#99906c;stroke-width:0.3908"
       transform="rotate(90)" />
    <rect
       x="90.634903"
       y="93.34874"
       class="st6"
       width="1.0999178"
       height="2.0998409"
       id="rect7005"
       style="fill:#dbddda;stroke-width:0.3908" />
    <rect
       x="90.634903"
       y="93.748711"
       class="st15"
       width="1.0999178"
       height="1.3998964"
       id="rect7009"
       style="fill:#bcbbba;stroke-width:0.3908" />
    <rect
       x="90.762352"
       y="97.581062"
       class="st6"
       width="1.0999178"
       height="2.0998409"
       id="rect7013"
       style="fill:#dbddda;stroke-width:0.3908" />
    <rect
       x="90.762352"
       y="97.881027"
       class="st15"
       width="1.0999178"
       height="1.3998964"
       id="rect7017"
       style="fill:#bcbbba;stroke-width:0.3908" />
    <rect
       x="92.762642"
       y="97.333344"
       class="st6"
       width="1.3998945"
       height="2.7997928"
       id="rect7093"
       style="fill:#dbddda;stroke-width:0.3908" />
    <rect
       x="92.762642"
       y="97.733315"
       class="st7"
       width="1.3998945"
       height="2.0998409"
       id="rect7097"
       style="fill:#2b2d2f;stroke-width:0.3908" />
    <rect
       x="99.88224"
       y="145.57735"
       class="st6"
       width="2.7997928"
       height="1.3998964"
       id="rect7117"
       style="fill:#dbddda;stroke-width:0.3908" />
    <rect
       x="100.18221"
       y="145.57735"
       class="st15"
       width="2.0998485"
       height="1.3998964"
       id="rect7121"
       style="fill:#bcbbba;stroke-width:0.3908" />
    <rect
       x="92.703186"
       y="145.55684"
       class="st6"
       width="2.7997928"
       height="1.3998945"
       id="rect7125"
       style="fill:#dbddda;stroke-width:0.3908" />
    <rect
       x="93.003151"
       y="145.55684"
       class="st15"
       width="2.0998485"
       height="1.3998945"
       id="rect7129"
       style="fill:#bcbbba;stroke-width:0.3908" />
    <rect
       x="99.86795"
       y="154.2623"
       class="st6"
       width="2.7997928"
       height="1.3998964"
       id="rect7133"
       style="fill:#dbddda;stroke-width:0.3908" />
    <rect
       x="100.16791"
       y="154.2623"
       class="st15"
       width="2.0998485"
       height="1.3998964"
       id="rect7137"
       style="fill:#bcbbba;stroke-width:0.3908" />
    <rect
       x="92.688896"
       y="154.2419"
       class="st6"
       width="2.7997928"
       height="1.3998945"
       id="rect7141"
       style="fill:#dbddda;stroke-width:0.3908" />
    <rect
       x="92.988853"
       y="154.2419"
       class="st15"
       width="2.0998485"
       height="1.3998945"
       id="rect7145"
       style="fill:#bcbbba;stroke-width:0.3908" />
    <rect
       x="101.18497"
       y="91.556335"
       class="st2"
       width="13.598977"
       height="3.3997462"
       id="rect7150"
       style="fill:none;stroke-width:0.3908" />
    <path
       class="st6"
       d="M 117.30602,104.18661 H 95.457092 V 98.036678 H 117.30602 Z M 95.607472,104.03624 H 117.15565 V 98.18707 H 95.607472 Z"
       id="path7216"
       style="fill:#dbddda;stroke-width:0.3908" />
    <rect
       x="87.632462"
       y="67.386742"
       class="st17"
       width="19.998499"
       height="19.998499"
       id="rect7272"
       style="fill:#323230;stroke-width:0.3908" />
    <path
       d="m 101.56052,75.161142 -0.085,-0.126609 a 1.6622799,1.6622799 0 0 0 -0.97245,-1.651138 c 0.14778,-0.04254 0.317,-0.08407 0.3595,-0.274507 a 0.40518704,0.40518704 0 0 0 0.3595,-0.318075 c 0.0639,-0.04254 0.31701,-0.189436 0.27565,-0.405186 a 0.34137008,0.34137008 0 0 0 0.16922,-0.380862 c 0.14702,-0.147897 0.18952,-0.27554 0.12673,-0.405186 a 0.30389029,0.30389029 0 0 0 0.0191,-0.443683 c 0.12749,-0.233999 0.0229,-0.487235 -0.33844,-0.444691 a 0.56017109,0.56017109 0 0 0 -0.50648,-0.170179 0.34440898,0.34440898 0 0 0 -0.33921,-0.101303 0.41531675,0.41531675 0 0 0 -0.46493,-0.04254 c -0.191429,-0.147896 -0.318161,-0.02144 -0.465985,0.02144 -0.233154,-0.08507 -0.296701,0.02144 -0.405163,0.06383 -0.253451,-0.06383 -0.338453,0.06279 -0.464979,0.189436 H 98.681714 A 1.7716804,1.7716804 0 0 0 98.02531,71.58356 1.4961533,1.4961533 0 0 0 97.369933,70.671889 h -0.1489 a 0.43253718,0.43253718 0 0 0 -0.465968,-0.189436 c -0.101303,-0.04254 -0.169136,-0.148891 -0.405188,-0.06383 a 1.5792165,1.5792165 0 0 0 -0.296784,-0.08507 0.40518704,0.40518704 0 0 0 -0.190435,0.06382 0.4163297,0.4163297 0 0 0 -0.465957,0.04254 c -0.211721,-0.02144 -0.296784,0.02144 -0.338332,0.101303 -0.0425,0 -0.359612,-0.04254 -0.506479,0.170178 -0.359614,-0.04254 -0.464952,0.211718 -0.338327,0.444693 a 0.32212371,0.32212371 0 0 0 0.02144,0.443682 c -0.06383,0.126609 -0.02144,0.254253 0.12661,0.405185 a 0.35453869,0.35453869 0 0 0 0.170179,0.380863 c -0.0222,0.232966 0.211718,0.359614 0.274505,0.405186 0.02144,0.126609 0.08407,0.254253 0.360603,0.318075 0.04154,0.189437 0.211722,0.231972 0.358581,0.274507 a 1.6835521,1.6835521 0 0 0 -0.973451,1.651137 l -0.08407,0.12661 a 1.6268261,1.6268261 0 0 0 -0.296789,2.455433 5.196524,5.196524 0 0 0 0.232967,0.739468 1.8638604,1.8638604 0 0 0 1.143647,1.439427 4.3446182,4.3446182 0 0 0 1.078809,0.614871 1.8294195,1.8294195 0 0 0 1.334106,0.592585 h 0.0192 a 1.8294195,1.8294195 0 0 0 1.334094,-0.592585 3.5231015,3.5231015 0 0 0 1.078816,-0.614871 1.785862,1.785862 0 0 0 1.14262,-1.439427 4.9534117,4.9534117 0 0 0 0.232,-0.739468 1.5559183,1.5559183 0 0 0 -0.21056,-2.455433 m -0.44468,-0.169183 c -0.0192,0.380863 -2.052262,-1.354334 -1.71393,-1.418152 a 1.3705452,1.3705452 0 0 1 1.71393,1.418152 m -0.91166,1.92464 a 1.2013796,1.2013796 0 0 1 -1.629886,-0.465967 1.1851721,1.1851721 0 0 1 0.211722,-1.67241 1.2003667,1.2003667 0 0 1 1.629884,0.465968 1.1790943,1.1790943 0 0 1 -0.21172,1.672409 m -1.396877,-5.99069 c 0.02294,0.08508 0.0425,0.148891 0.06387,0.148891 a 2.8515039,2.8515039 0 0 1 0.338441,-0.360609 c 0,0.06481 -0.0425,0.148891 0.0425,0.191465 a 1.3087541,1.3087541 0 0 1 0.318144,-0.27554 c -0.06472,0.101302 -0.02294,0.148892 0.0192,0.190431 a 1.2155612,1.2155612 0 0 1 0.405175,-0.254253 c -0.06399,0.06382 -0.126732,0.127644 -0.04142,0.212714 a 1.3857397,1.3857397 0 0 1 0.486227,-0.191466 c -0.0639,0.06382 -0.19066,0.12661 -0.10142,0.191466 a 2.9528007,2.9528007 0 0 1 0.46498,-0.101303 c -0.0843,0.06382 -0.14779,0.12661 -0.0843,0.190432 a 1.157822,1.157822 0 0 1 0.55004,-0.06382 l -0.12672,0.126609 a 2.2133343,2.2133343 0 0 0 0.48623,0.0222 1.2358205,1.2358205 0 0 0 -0.19066,0.380863 c 0.0229,0.0203 0.12672,0 0.21056,0 -0.10142,0.210685 -0.2745,0.253259 -0.29594,0.338328 a 0.22791773,0.22791773 0 0 0 0.23315,0 c -0.0639,0.147897 -0.21171,0.231971 -0.33844,0.359615 0.0229,0.02144 0.0843,0.04153 0.21058,0.02144 a 2.9376061,2.9376061 0 0 1 -0.38094,0.31704 1.2226519,1.2226519 0 0 0 0.21172,0.04254 2.2619567,2.2619567 0 0 1 -0.48623,0.295793 0.27350127,0.27350127 0 0 0 0.21172,0.04254 1.5731387,1.5731387 0 0 1 -0.50648,0.211718 c 0.0425,0.06382 0.0628,0.06382 0.14778,0.08507 -0.19067,0.106362 -0.48622,0.06382 -0.57133,0.106362 0.0192,0.06279 0.0628,0.08407 0.14778,0.126609 -0.317001,0.0203 -1.185162,-0.02144 -1.354347,-0.677674 a 6.6754565,6.6754565 0 0 1 1.946927,-1.291535 6.3654885,6.3654885 0 0 0 -2.117101,1.12237 c -0.73945,-0.338327 -0.253076,-1.163901 0.106374,-1.503244 m -0.719202,2.39263 v 0 c 0.506478,0 1.121347,0.358581 1.121347,0.719206 0,0.317041 -0.443656,0.571314 -1.121347,0.550042 -0.67769,0 -1.122384,-0.318075 -1.122384,-0.61386 0,-0.254253 0.550042,-0.677674 1.122384,-0.655388 m -2.561814,-0.27554 c 0.08512,-0.02144 0.106374,-0.02144 0.148899,-0.08507 a 1.563009,1.563009 0 0 1 -0.506477,-0.211718 0.27350127,0.27350127 0 0 0 0.211709,-0.04153 2.3399552,2.3399552 0 0 1 -0.48724,-0.296789 c 0.08407,0 0.190431,0 0.211718,-0.04254 a 1.3604156,1.3604156 0 0 1 -0.380863,-0.317042 0.28160502,0.28160502 0 0 0 0.210684,-0.02144 2.7755313,2.7755313 0 0 1 -0.338327,-0.359615 0.29477358,0.29477358 0 0 0 0.232966,0 c -0.04153,-0.08407 -0.211718,-0.147896 -0.295793,-0.338327 0.08407,0 0.189436,0.0203 0.211718,0 a 1.2479761,1.2479761 0 0 0 -0.191465,-0.380864 2.2102954,2.2102954 0 0 0 0.487244,-0.02144 l -0.126619,-0.127643 a 0.94408583,0.94408583 0 0 1 0.55005,0.06382 c 0.06279,-0.04154 0,-0.101303 -0.08404,-0.190433 a 3.0186436,3.0186436 0 0 1 0.465957,0.101303 c 0.06279,-0.06382 -0.0425,-0.12661 -0.106374,-0.191466 a 1.2155612,1.2155612 0 0 1 0.487232,0.191466 c 0.08404,-0.08511 0,-0.148892 -0.0425,-0.211719 a 1.1801073,1.1801073 0 0 1 0.405188,0.254254 c 0.0425,-0.04254 0.08512,-0.08508 0.02222,-0.191466 a 0.8296205,0.8296205 0 0 1 0.316043,0.27554 c 0.08512,-0.06382 0.0425,-0.126609 0.0425,-0.190431 a 1.7949786,1.7949786 0 0 1 0.339358,0.359614 0.34035712,0.34035712 0 0 0 0.06387,-0.147896 c 0.338332,0.338329 0.824573,1.163899 0.12661,1.480956 a 6.7494033,6.7494033 0 0 0 -2.116094,-1.121352 7.1596553,7.1596553 0 0 1 1.946934,1.290519 c -0.169148,0.657414 -1.037285,0.698946 -1.354343,0.677675 a 0.22183992,0.22183992 0 0 0 0.147898,-0.126609 1.7068505,1.7068505 0 0 1 -0.593594,-0.08511 m 1.249997,0.506485 c 0.358581,0.06382 -1.673428,1.800041 -1.714951,1.418151 a 1.3725712,1.3725712 0 0 1 1.714951,-1.418151 m -2.13838,3.873585 a 1.2915337,1.2915337 0 0 1 0.254253,-2.053283 c 0.550045,-0.126611 0.190438,2.263982 -0.254253,2.053283 m 1.876019,2.055313 a 1.2064445,1.2064445 0 0 1 -1.435843,-0.571168 c -0.318084,-0.571314 -0.275549,-1.142627 -0.06387,-1.316857 0.338332,-0.210685 0.868113,0.06481 1.269243,0.529782 0.360609,0.405186 0.529781,1.142627 0.233999,1.354338 M 95.974911,76.9774 a 1.2976116,1.2976116 0 1 1 1.628851,-0.465968 1.2034056,1.2034056 0 0 1 -1.628851,0.465968 m 2.116094,3.660865 a 1.3421821,1.3421821 0 0 1 -1.206457,-0.677674 c 0,-0.253259 0.740489,-0.464954 1.226718,-0.464954 0.487219,-0.02144 1.16491,0.147896 1.16491,0.405186 0.0192,0.231972 -0.592579,0.740482 -1.185171,0.740482 m 1.227709,-2.602315 a 1.1831462,1.1831462 0 0 1 -1.227709,1.121355 1.1689646,1.1689646 0 0 1 -1.227732,-1.121355 v -0.0222 a 1.1831462,1.1831462 0 0 1 1.227732,-1.121352 1.2003667,1.2003667 0 0 1 1.227709,1.143637 m 1.713946,0.888375 c -0.52879,0.719207 -1.227729,0.740478 -1.502237,0.550039 -0.275655,-0.25322 -0.06387,-1.05855 0.317009,-1.503241 0.444718,-0.486225 0.911688,-0.803286 1.226698,-0.549029 a 1.3735841,1.3735841 0 0 1 -0.0413,1.502231 m 0.46494,-1.519451 c -0.44369,0.189436 -0.8043,-2.179909 -0.25307,-2.052274 a 1.2783651,1.2783651 0 0 1 0.25307,2.052274"
       style="fill:#3d3f38;stroke-width:1.01297"
       id="path193" />
    <path
       id="path7466"
       style="fill:#958763;stroke-width:0.3908"
       class="st12"
       d="m 67.764631,14.553256 v 0.765845 c 0.666951,0 1.209745,0.541764 1.209745,1.208712 0,0.666951 -0.542794,1.210262 -1.209745,1.210262 v 0.765845 h 4.563546 c 1.088929,-0.0012 1.975073,-0.88719 1.975073,-1.976107 0,-1.088918 -0.886144,-1.974557 -1.975073,-1.974557 z m 54.959949,0 c -1.08892,0 -1.97455,0.885639 -1.97455,1.974557 0,1.088917 0.88563,1.975073 1.97455,1.975073 h 4.56407 v -0.765845 c -0.66694,0 -1.21027,-0.542277 -1.21027,-1.209228 0,-0.666955 0.54333,-1.208712 1.21027,-1.208712 v -0.765845 z m -50.396403,0.777731 c 0.659956,0 1.196826,0.536874 1.196826,1.196826 0,0.659952 -0.53687,1.197343 -1.196826,1.197343 -0.659952,0 -1.196826,-0.537391 -1.196826,-1.197343 0,-0.659952 0.536874,-1.196826 1.196826,-1.196826 z m 50.396403,0 c 0.65995,0 1.19683,0.536874 1.19683,1.196826 0,0.659952 -0.53688,1.197343 -1.19683,1.197343 -0.65995,0 -1.19682,-0.537391 -1.19682,-1.197343 0,-0.659952 0.53687,-1.196826 1.19682,-1.196826 z m -54.959949,6.422864 v 0.765844 c 0.666951,0 1.209745,0.541765 1.209745,1.208712 0,0.666952 -0.542794,1.209745 -1.209745,1.209745 v 0.766362 h 4.563546 c 1.088929,-0.0012 1.975073,-0.887189 1.975073,-1.976107 0,-1.088917 -0.886144,-1.974556 -1.975073,-1.974556 z m 54.959949,0 c -1.08892,0 -1.97455,0.885639 -1.97455,1.974556 0,1.088922 0.88563,1.975073 1.97455,1.975073 h 4.56407 v -0.766361 c -0.66694,0 -1.21027,-0.54176 -1.21027,-1.208712 0,-0.666947 0.54333,-1.208712 1.21027,-1.208712 v -0.765844 z m -50.396403,0.77773 c 0.659956,0 1.196826,0.536874 1.196826,1.196826 0,0.659952 -0.53687,1.196826 -1.196826,1.196826 -0.659952,0 -1.196826,-0.536874 -1.196826,-1.196826 0,-0.659952 0.536874,-1.196826 1.196826,-1.196826 z m 50.396403,0 c 0.65995,0 1.19683,0.536882 1.19683,1.196826 0,0.659952 -0.53688,1.196826 -1.19683,1.196826 -0.65995,0 -1.19682,-0.536874 -1.19682,-1.196826 0,-0.659944 0.53687,-1.196826 1.19682,-1.196826 z m -54.959949,6.422347 v 0.765845 c 0.666951,0 1.209745,0.542281 1.209745,1.209228 0,0.666955 -0.542794,1.208712 -1.209745,1.208712 v 0.765845 h 6.538619 v -3.94963 z m 52.985399,0 v 3.94963 h 6.53862 v -0.765845 c -0.66694,0 -1.21027,-0.541757 -1.21027,-1.208712 0,-0.666947 0.54333,-1.209228 1.21027,-1.209228 v -0.765845 z m -48.421853,0.778247 c 0.659956,0 1.196826,0.536874 1.196826,1.196826 0,0.659952 -0.53687,1.196826 -1.196826,1.196826 -0.659952,0 -1.196826,-0.536882 -1.196826,-1.196826 0,-0.659952 0.536874,-1.196826 1.196826,-1.196826 z m 50.396403,0 c 0.65995,0 1.19683,0.536882 1.19683,1.196826 0,0.659952 -0.53688,1.196826 -1.19683,1.196826 -0.65995,0 -1.19682,-0.536874 -1.19682,-1.196826 0,-0.659944 0.53687,-1.196826 1.19682,-1.196826 z m -54.959949,6.42028 V 36.9183 c 0.666951,0 1.209745,0.542276 1.209745,1.209228 0,0.666947 -0.542794,1.209745 -1.209745,1.209745 v 0.765845 h 4.563546 c 1.088929,-0.0012 1.975073,-0.886673 1.975073,-1.97559 0,-1.088918 -0.886144,-1.975073 -1.975073,-1.975073 z m 54.959949,0 c -1.08892,0 -1.97455,0.886156 -1.97455,1.975073 0,1.088914 0.88563,1.974565 1.97455,1.974557 h 4.56407 V 39.33624 c -0.66694,0 -1.21027,-0.541757 -1.21027,-1.208712 0,-0.666948 0.54333,-1.209228 1.21027,-1.209228 v -0.765845 z m -50.396403,0.778247 c 0.659956,0 1.196826,0.536881 1.196826,1.196826 0,0.659952 -0.53687,1.196826 -1.196826,1.196826 -0.659952,0 -1.196826,-0.536874 -1.196826,-1.196826 0,-0.659945 0.536874,-1.196826 1.196826,-1.196826 z m 50.396403,0 c 0.65995,0 1.19683,0.536881 1.19683,1.196826 0,0.659952 -0.53688,1.196826 -1.19683,1.196826 -0.65995,0 -1.19682,-0.536874 -1.19682,-1.196826 0,-0.659945 0.53687,-1.196826 1.19682,-1.196826 z m -54.959949,6.42028 v 0.765845 c 0.666951,0 1.209745,0.542277 1.209745,1.209228 0,0.666955 -0.542794,1.209745 -1.209745,1.209745 v 0.765845 h 4.563546 c 1.088929,-0.0012 1.975073,-0.886672 1.975073,-1.97559 0,-1.088918 -0.886144,-1.975073 -1.975073,-1.975073 z m 54.959949,0 c -1.08892,0 -1.97455,0.886155 -1.97455,1.975073 0,1.088918 0.88563,1.974557 1.97455,1.974557 h 4.56407 v -0.765845 c -0.66694,0 -1.21027,-0.541757 -1.21027,-1.208712 0,-0.666951 0.54333,-1.209228 1.21027,-1.209228 v -0.765845 z m -50.396403,0.77773 c 0.659956,0 1.196826,0.537391 1.196826,1.197343 0,0.659952 -0.53687,1.196826 -1.196826,1.196826 -0.659952,0 -1.196826,-0.536874 -1.196826,-1.196826 0,-0.659952 0.536874,-1.197343 1.196826,-1.197343 z m 50.396403,0 c 0.65995,0 1.19683,0.537391 1.19683,1.197343 0,0.659952 -0.53688,1.196826 -1.19683,1.196826 -0.65995,0 -1.19682,-0.536874 -1.19682,-1.196826 0,-0.659952 0.53687,-1.197343 1.19682,-1.197343 z m -54.959949,6.42183 v 0.765845 c 0.666951,0 1.209745,0.541769 1.209745,1.208712 0,0.666955 -0.542794,1.210262 -1.209745,1.210262 v 0.765845 h 4.563546 c 1.088929,-0.0012 1.975073,-0.887181 1.975073,-1.976107 0,-1.088921 -0.886144,-1.974557 -1.975073,-1.974557 z m 54.959949,0 c -1.08892,0 -1.97455,0.885644 -1.97455,1.974557 0,1.088918 0.88563,1.975065 1.97455,1.975073 h 4.56407 v -0.765845 c -0.66694,0 -1.21027,-0.542276 -1.21027,-1.209228 0,-0.666951 0.54333,-1.208712 1.21027,-1.208712 v -0.765845 z m -50.396403,0.777731 c 0.659956,0 1.196826,0.536874 1.196826,1.196826 0,0.659956 -0.53687,1.197343 -1.196826,1.197343 -0.659952,0 -1.196826,-0.537387 -1.196826,-1.197343 0,-0.659952 0.536874,-1.196826 1.196826,-1.196826 z m 50.396403,0 c 0.65995,0 1.19683,0.536874 1.19683,1.196826 0,0.659956 -0.53688,1.197343 -1.19683,1.197343 -0.65995,0 -1.19682,-0.537387 -1.19682,-1.197343 0,-0.659952 0.53687,-1.196826 1.19682,-1.196826 z m -54.959949,6.42183 v 0.765845 c 0.666951,0 1.209745,0.541764 1.209745,1.208711 0,0.666955 -0.542794,1.210263 -1.209745,1.210263 v 0.765844 h 4.563546 c 1.088929,-0.0012 1.975073,-0.887189 1.975073,-1.976107 0,-1.088921 -0.886144,-1.974556 -1.975073,-1.974556 z m 54.959949,0 c -1.08892,0 -1.97455,0.885639 -1.97455,1.974556 0,1.088922 0.88563,1.975074 1.97455,1.975074 h 4.56407 v -0.765845 c -0.66694,0 -1.21027,-0.542274 -1.21027,-1.209229 0,-0.666951 0.54333,-1.208711 1.21027,-1.208711 v -0.765845 z m -50.396403,0.77773 c 0.659956,0 1.196826,0.536874 1.196826,1.196826 0,0.659952 -0.53687,1.196827 -1.196826,1.196827 -0.659952,0 -1.196826,-0.536875 -1.196826,-1.196827 0,-0.659952 0.536874,-1.196826 1.196826,-1.196826 z m 50.396403,0 c 0.65995,0 1.19683,0.536882 1.19683,1.196826 0,0.659952 -0.53688,1.196827 -1.19683,1.196827 -0.65995,0 -1.19682,-0.536875 -1.19682,-1.196827 0,-0.659944 0.53687,-1.196826 1.19682,-1.196826 z m -54.959949,6.421314 v 0.766361 c 0.666951,0 1.209745,0.541757 1.209745,1.208712 0,0.666952 -0.542794,1.209745 -1.209745,1.209745 v 0.766362 h 6.538619 v -3.95118 z m 52.985399,0 v 3.950146 h 6.53862 v -0.766361 c -0.66694,0 -1.21027,-0.541761 -1.21027,-1.208712 0,-0.666944 0.54333,-1.208712 1.21027,-1.208712 v -0.766361 z m -48.421853,0.778247 c 0.659956,0 1.196826,0.536885 1.196826,1.196826 0,0.659952 -0.53687,1.196826 -1.196826,1.196826 -0.659952,0 -1.196826,-0.536874 -1.196826,-1.196826 0,-0.659952 0.536874,-1.196826 1.196826,-1.196826 z m 50.396403,0 c 0.65995,0 1.19683,0.536874 1.19683,1.196826 0,0.659952 -0.53688,1.196826 -1.19683,1.196826 -0.65995,0 -1.19682,-0.536874 -1.19682,-1.196826 0,-0.659952 0.53687,-1.196826 1.19682,-1.196826 z m -54.959949,6.421313 v 0.765845 c 0.666951,0 1.209745,0.542274 1.209745,1.209229 0,0.666952 -0.542794,1.209745 -1.209745,1.209745 v 0.765845 h 4.563546 c 1.088929,-0.0012 1.975073,-0.886661 1.975073,-1.97559 0,-1.088918 -0.886144,-1.975074 -1.975073,-1.975074 z m 54.959949,0 c -1.08892,0 -1.97455,0.886156 -1.97455,1.975074 0,1.088917 0.88563,1.974545 1.97455,1.974556 h 4.56407 v -0.765845 c -0.66694,0 -1.21027,-0.54176 -1.21027,-1.208711 0,-0.666956 0.54333,-1.209229 1.21027,-1.209229 v -0.765845 z m -50.396403,0.778247 c 0.659956,0 1.196826,0.536875 1.196826,1.196827 0,0.659952 -0.53687,1.196826 -1.196826,1.196826 -0.659952,0 -1.196826,-0.536874 -1.196826,-1.196826 0,-0.659952 0.536874,-1.196827 1.196826,-1.196827 z m 50.396403,0 c 0.65995,0 1.19683,0.536875 1.19683,1.196827 0,0.659952 -0.53688,1.196826 -1.19683,1.196826 -0.65995,0 -1.19682,-0.536885 -1.19682,-1.196826 0,-0.659952 0.53687,-1.196827 1.19682,-1.196827 z m -54.959949,6.421314 v 0.765845 c 0.666951,0 1.209745,0.542288 1.209745,1.209228 0,0.666967 -0.542794,1.209745 -1.209745,1.209745 v 0.765845 h 4.563546 c 1.088929,-0.0012 1.975073,-0.886661 1.975073,-1.97559 0,-1.088902 -0.886144,-1.975073 -1.975073,-1.975073 z m 54.959949,0 c -1.08892,0 -1.97455,0.886159 -1.97455,1.975073 0,1.088929 0.88563,1.974557 1.97455,1.974557 h 4.56407 v -0.765845 c -0.66694,0 -1.21027,-0.541757 -1.21027,-1.208712 0,-0.66694 0.54333,-1.209228 1.21027,-1.209228 v -0.765845 z m -50.396403,0.77773 c 0.659956,0 1.196826,0.537403 1.196826,1.197343 0,0.659964 -0.53687,1.196826 -1.196826,1.196826 -0.659952,0 -1.196826,-0.536862 -1.196826,-1.196826 0,-0.65994 0.536874,-1.197343 1.196826,-1.197343 z m 50.396403,0 c 0.65995,0 1.19683,0.537391 1.19683,1.197343 0,0.659963 -0.53688,1.196826 -1.19683,1.196826 -0.65995,0 -1.19682,-0.536863 -1.19682,-1.196826 0,-0.659952 0.53687,-1.197343 1.19682,-1.197343 z m -54.959949,6.42183 v 0.765845 c 0.666951,0 1.209745,0.541768 1.209745,1.208712 0,0.666951 -0.542794,1.210262 -1.209745,1.210262 v 0.765845 h 4.563546 c 1.088929,-0.0012 1.975073,-0.887194 1.975073,-1.976107 0,-1.08893 -0.886144,-1.974557 -1.975073,-1.974557 z m 54.959949,0 c -1.08892,0 -1.97455,0.885643 -1.97455,1.974557 0,1.088918 0.88563,1.975073 1.97455,1.975073 h 4.56407 v -0.765845 c -0.66694,0 -1.21027,-0.542285 -1.21027,-1.209228 0,-0.666951 0.54333,-1.208712 1.21027,-1.208712 v -0.765845 z m -50.396403,0.777731 c 0.659956,0 1.196826,0.536858 1.196826,1.196826 0,0.659952 -0.53687,1.197343 -1.196826,1.197343 -0.659952,0 -1.196826,-0.537391 -1.196826,-1.197343 0,-0.659968 0.536874,-1.196826 1.196826,-1.196826 z m 50.396403,0 c 0.65995,0 1.19683,0.536858 1.19683,1.196826 0,0.659952 -0.53688,1.197343 -1.19683,1.197343 -0.65995,0 -1.19682,-0.537391 -1.19682,-1.197343 0,-0.659968 0.53687,-1.196826 1.19682,-1.196826 z m -54.959949,6.42183 v 0.765845 c 0.666951,0 1.209745,0.541756 1.209745,1.208711 0,0.666939 -0.542794,1.210262 -1.209745,1.210262 v 0.765845 h 4.563546 c 1.088929,-0.0012 1.975073,-0.88719 1.975073,-1.976107 0,-1.08893 -0.886144,-1.974556 -1.975073,-1.974556 z m 54.959949,0 c -1.08892,0 -1.97455,0.885638 -1.97455,1.974556 0,1.088918 0.88563,1.975074 1.97455,1.975074 h 4.56407 v -0.765845 c -0.66694,0 -1.21027,-0.54229 -1.21027,-1.209229 0,-0.666955 0.54333,-1.208711 1.21027,-1.208711 v -0.765845 z m -50.396403,0.77773 c 0.659956,0 1.196826,0.536874 1.196826,1.196826 0,0.659952 -0.53687,1.196827 -1.196826,1.196827 -0.659952,0 -1.196826,-0.536875 -1.196826,-1.196827 0,-0.659952 0.536874,-1.196826 1.196826,-1.196826 z m 50.396403,0 c 0.65995,0 1.19683,0.536874 1.19683,1.196826 0,0.659952 -0.53688,1.196827 -1.19683,1.196827 -0.65995,0 -1.19682,-0.536875 -1.19682,-1.196827 0,-0.659952 0.53687,-1.196826 1.19682,-1.196826 z m -25.542106,4.586284 v 3.999757 h 3.999236 v -3.999757 z m 9.198926,0 c -1.09996,0 -1.99988,0.899927 -1.99988,1.999877 0,1.09989 0.89992,1.99988 1.99988,1.99988 1.09989,0 1.99987,-0.89999 1.99987,-1.99988 0,-1.09995 -0.99994,-1.999877 -1.99987,-1.999877 z m 7.19956,0 c -1.09996,0 -1.99988,0.899927 -1.99988,1.999877 0,1.09989 0.89992,1.99988 1.99988,1.99988 1.09989,0 1.99987,-0.89999 1.99987,-1.99988 0,-1.09995 -0.99995,-1.999877 -1.99987,-1.999877 z m -14.398608,0.799951 c 0.699966,0 1.199928,0.499956 1.199928,1.199926 -0.10003,0.69996 -0.599999,1.19993 -1.199928,1.19993 -0.699966,0 -1.199927,-0.49997 -1.199927,-1.19993 0,-0.69997 0.499961,-1.199926 1.199927,-1.199926 z m 7.199048,0 c 0.69996,0 1.19992,0.499956 1.19992,1.199926 -0.10003,0.69996 -0.59999,1.19993 -1.19992,1.19993 -0.69996,0 -1.19993,-0.49997 -1.19993,-1.19993 0,-0.69997 0.49997,-1.199926 1.19993,-1.199926 z m 7.19956,0 c 0.69989,0 1.19992,0.499956 1.19992,1.199926 -0.1,0.69996 -0.6,1.19993 -1.19992,1.19993 -0.69997,0 -1.19993,-0.49997 -1.19993,-1.19993 0,-0.69997 0.49996,-1.199926 1.19993,-1.199926 z m -45.816329,1.035076 v 0.76636 c 0.666951,0 1.209745,0.54178 1.209745,1.20872 0,0.66696 -0.542794,1.20974 -1.209745,1.20974 v 0.76636 h 6.538619 v -3.95118 z m 52.985399,0 v 3.95015 h 6.53862 v -0.76636 c -0.66694,0 -1.21027,-0.54175 -1.21027,-1.20871 0,-0.66694 0.54333,-1.20872 1.21027,-1.20872 v -0.76636 z m -48.421853,0.77825 c 0.659956,0 1.196826,0.53688 1.196826,1.19683 0,0.65995 -0.53687,1.19682 -1.196826,1.19682 -0.659952,0 -1.196826,-0.53687 -1.196826,-1.19682 0,-0.65995 0.536874,-1.19683 1.196826,-1.19683 z m 50.396403,0 c 0.65995,0 1.19683,0.53687 1.19683,1.19683 0,0.65995 -0.53688,1.19682 -1.19683,1.19682 -0.65995,0 -1.19682,-0.53687 -1.19682,-1.19682 0,-0.65996 0.53687,-1.19683 1.19682,-1.19683 z m -54.959949,6.42131 v 0.76585 c 0.666951,0 1.209745,0.54227 1.209745,1.20923 0,0.66694 -0.542794,1.20871 -1.209745,1.20871 v 0.76584 h 4.563546 c 1.088929,0 1.975073,-0.88562 1.975073,-1.97455 0,-1.08892 -0.886144,-1.97508 -1.975073,-1.97508 z m 54.959949,0 c -1.08892,0 -1.97455,0.88616 -1.97455,1.97508 0,1.08892 0.88563,1.97455 1.97455,1.97455 h 4.56407 v -0.76584 c -0.66694,0 -1.21027,-0.54177 -1.21027,-1.20871 0,-0.66695 0.54333,-1.20923 1.21027,-1.20923 v -0.76585 z m -50.396403,0.77825 c 0.659956,0 1.196826,0.53688 1.196826,1.19683 0,0.65996 -0.53687,1.19682 -1.196826,1.19682 -0.659952,0 -1.196826,-0.53686 -1.196826,-1.19682 0,-0.65995 0.536874,-1.19683 1.196826,-1.19683 z m 50.396403,0 c 0.65995,0 1.19683,0.53688 1.19683,1.19683 0,0.65997 -0.53688,1.19682 -1.19683,1.19682 -0.65995,0 -1.19682,-0.53685 -1.19682,-1.19682 0,-0.65995 0.53687,-1.19683 1.19682,-1.19683 z m -54.959949,6.42131 v 0.76585 c 0.666951,0 1.209745,0.54227 1.209745,1.20923 0,0.66694 -0.542794,1.20871 -1.209745,1.20871 v 0.76584 h 4.563546 c 1.088929,0 1.975073,-0.88563 1.975073,-1.97455 0,-1.08893 -0.886144,-1.97508 -1.975073,-1.97508 z m 54.959949,0 c -1.08892,0 -1.97455,0.88616 -1.97455,1.97508 0,1.08891 0.88563,1.97454 1.97455,1.97455 h 4.56407 v -0.76584 c -0.66694,0 -1.21027,-0.54176 -1.21027,-1.20871 0,-0.66696 0.54333,-1.20923 1.21027,-1.20923 v -0.76585 z m -50.396403,0.77773 c 0.659956,0 1.196826,0.5374 1.196826,1.19735 0,0.65995 -0.53687,1.19682 -1.196826,1.19682 -0.659952,0 -1.196826,-0.53687 -1.196826,-1.19682 0,-0.65995 0.536874,-1.19735 1.196826,-1.19735 z m 50.396403,0 c 0.65995,0 1.19683,0.5374 1.19683,1.19735 0,0.65995 -0.53688,1.19682 -1.19683,1.19682 -0.65995,0 -1.19682,-0.53687 -1.19682,-1.19682 0,-0.65995 0.53687,-1.19735 1.19682,-1.19735 z m -54.959949,6.42183 v 0.76585 c 0.666951,0 1.209745,0.54175 1.209745,1.20871 0,0.66694 -0.542794,1.20923 -1.209745,1.20923 v 0.76584 h 4.563546 c 1.088929,0 1.975073,-0.88614 1.975073,-1.97507 0,-1.08892 -0.886144,-1.97456 -1.975073,-1.97456 z m 54.959949,0 c -1.08892,0 -1.97455,0.88564 -1.97455,1.97456 0,1.08891 0.88563,1.97507 1.97455,1.97507 h 4.56407 v -0.76584 c -0.66694,0 -1.21027,-0.54229 -1.21027,-1.20923 0,-0.66697 0.54333,-1.20871 1.21027,-1.20871 v -0.76585 z m -50.396403,0.77773 c 0.659956,0 1.196826,0.53688 1.196826,1.19683 0,0.65994 -0.53687,1.19734 -1.196826,1.19734 -0.659952,0 -1.196826,-0.5374 -1.196826,-1.19734 0,-0.65995 0.536874,-1.19683 1.196826,-1.19683 z m 50.396403,0 c 0.65995,0 1.19683,0.53688 1.19683,1.19683 0,0.65995 -0.53688,1.19734 -1.19683,1.19734 -0.65995,0 -1.19682,-0.53739 -1.19682,-1.19734 0,-0.65995 0.53687,-1.19683 1.19682,-1.19683 z m -54.959949,6.42183 v 0.76585 c 0.666951,0 1.209745,0.54176 1.209745,1.20871 0,0.66696 -0.542794,1.20923 -1.209745,1.20923 v 0.76584 h 4.563546 c 1.088929,0 1.975073,-0.88614 1.975073,-1.97507 0,-1.08892 -0.886144,-1.97456 -1.975073,-1.97456 z m 54.959949,0 c -1.08892,0 -1.97455,0.88564 -1.97455,1.97456 0,1.08891 0.88563,1.97506 1.97455,1.97507 h 4.56407 v -0.76584 c -0.66694,0 -1.21027,-0.54228 -1.21027,-1.20923 0,-0.66695 0.54333,-1.20871 1.21027,-1.20871 v -0.76585 z m -50.396403,0.77774 c 0.659956,0 1.196826,0.53687 1.196826,1.19682 0,0.65995 -0.53687,1.19683 -1.196826,1.19683 -0.659952,0 -1.196826,-0.53688 -1.196826,-1.19683 0,-0.65995 0.536874,-1.19682 1.196826,-1.19682 z m 50.396403,0 c 0.65995,0 1.19683,0.53685 1.19683,1.19682 0,0.65994 -0.53688,1.19683 -1.19683,1.19683 -0.65995,0 -1.19682,-0.53689 -1.19682,-1.19683 0,-0.65997 0.53687,-1.19682 1.19682,-1.19682 z m -54.959949,6.42131 v 0.76636 c 0.666951,0 1.209745,0.54177 1.209745,1.20871 0,0.66695 -0.542794,1.20871 -1.209745,1.20871 v 0.76637 h 6.538619 v -3.95015 z m 52.985399,0 v 3.95015 h 6.53862 v -0.76637 c -0.66694,0 -1.21027,-0.54176 -1.21027,-1.20871 0,-0.66694 0.54333,-1.20871 1.21027,-1.20871 v -0.76636 z m -48.421853,0.77825 c 0.659956,0 1.196826,0.53687 1.196826,1.19682 0,0.65996 -0.53687,1.19683 -1.196826,1.19683 -0.659952,0 -1.196826,-0.53687 -1.196826,-1.19683 0,-0.65995 0.536874,-1.19682 1.196826,-1.19682 z m 50.396403,0 c 0.65995,0 1.19683,0.53687 1.19683,1.19682 0,0.65996 -0.53688,1.19683 -1.19683,1.19683 -0.65995,0 -1.19682,-0.53687 -1.19682,-1.19683 0,-0.65995 0.53687,-1.19682 1.19682,-1.19682 z m -54.959949,6.42131 v 0.76584 c 0.666951,0 1.209745,0.54229 1.209745,1.20923 0,0.66695 -0.542794,1.20871 -1.209745,1.20871 v 0.76585 h 4.563546 c 1.088929,0 1.975073,-0.88563 1.975073,-1.97456 0,-1.08892 -0.886144,-1.97507 -1.975073,-1.97507 z m 54.959949,0 c -1.08892,0 -1.97455,0.88615 -1.97455,1.97507 0,1.08892 0.88563,1.97456 1.97455,1.97456 h 4.56407 v -0.76585 c -0.66694,0 -1.21027,-0.54176 -1.21027,-1.20871 0,-0.66695 0.54333,-1.20923 1.21027,-1.20923 v -0.76584 z m -50.396403,0.77825 c 0.659956,0 1.196826,0.53687 1.196826,1.19682 0,0.65997 -0.53687,1.19683 -1.196826,1.19683 -0.659952,0 -1.196826,-0.53686 -1.196826,-1.19683 0,-0.65995 0.536874,-1.19682 1.196826,-1.19682 z m 50.396403,0 c 0.65995,0 1.19683,0.53687 1.19683,1.19682 0,0.65997 -0.53688,1.19683 -1.19683,1.19683 -0.65995,0 -1.19682,-0.53686 -1.19682,-1.19683 0,-0.65995 0.53687,-1.19682 1.19682,-1.19682 z m -54.959949,6.42028 v 0.76584 c 0.666951,0 1.209745,0.54229 1.209745,1.20923 0,0.66695 -0.542794,1.20871 -1.209745,1.20871 v 0.76585 h 4.563546 c 1.088929,0 1.975073,-0.88565 1.975073,-1.97456 0,-1.08893 -0.886144,-1.97507 -1.975073,-1.97507 z m 54.959949,0 c -1.08892,0 -1.97455,0.88616 -1.97455,1.97507 0,1.08892 0.88563,1.97456 1.97455,1.97456 h 4.56407 v -0.76585 c -0.66694,0 -1.21027,-0.54178 -1.21027,-1.20871 0,-0.66696 0.54333,-1.20923 1.21027,-1.20923 v -0.76584 z m -50.396403,0.77824 c 0.659956,0 1.196826,0.53687 1.196826,1.19683 0,0.65996 -0.53687,1.19683 -1.196826,1.19683 -0.659952,0 -1.196826,-0.53687 -1.196826,-1.19683 0,-0.65996 0.536874,-1.19683 1.196826,-1.19683 z m 50.396403,0 c 0.65995,0 1.19683,0.53686 1.19683,1.19683 0,0.65995 -0.53688,1.19683 -1.19683,1.19683 -0.65995,0 -1.19682,-0.53687 -1.19682,-1.19683 0,-0.65997 0.53687,-1.19683 1.19682,-1.19683 z" />
    <rect
       x="55.503002"
       y="-91.757454"
       width="5.5808802"
       height="8.3718109"
       style="fill:#2a2d2e;stroke-width:0.984455"
       id="rect98"
       transform="rotate(90)" />
    <path
       d="m 99.875946,60.285044 v -4.724465 a 0.67380588,0.44998699 0 0 1 0.673814,-0.449987 h 5.39043 a 0.67380588,0.44998699 0 0 1 0.67383,0.449987 v 4.724465 a 0.67380588,0.44998699 0 0 1 -0.67383,0.449987 h -5.39043 a 0.67380588,0.44998699 0 0 1 -0.673814,-0.449987"
       style="fill:#2a2d2e;stroke-width:0.984451"
       id="path106-9" />
    <rect
       x="-116.38087"
       y="-73.519531"
       width="0.98691887"
       height="2.3370986"
       style="fill:#dbddda;stroke-width:0.984451"
       id="rect107-7"
       transform="scale(-1)" />
    <rect
       x="-117.38592"
       y="-77.25161"
       width="0.98691887"
       height="2.3370986"
       style="fill:#dbddda;stroke-width:0.984451"
       id="rect107-7-3"
       transform="scale(-1)" />
    <rect
       x="-115.19599"
       y="-77.25161"
       width="0.98691887"
       height="2.3370986"
       style="fill:#dbddda;stroke-width:0.984451"
       id="rect107-7-3-7"
       transform="scale(-1)" />
    <rect
       x="113.79445"
       y="73.519531"
       width="4.1859055"
       height="1.3949739"
       style="fill:#2a2d2e;stroke-width:0.984455"
       id="rect117" />
    <rect
       x="108.46893"
       y="62.220486"
       width="1.3949739"
       height="2.7899477"
       style="fill:#dbddda;stroke-width:0.984455"
       id="rect121" />
    <rect
       x="108.46893"
       y="62.568001"
       width="1.3949739"
       height="2.0939374"
       style="fill:#9a916c;stroke-width:0.984455"
       id="rect122" />
    <rect
       x="112.06328"
       y="62.220486"
       width="1.3949739"
       height="2.7899477"
       style="fill:#dbddda;stroke-width:0.984455"
       id="rect121-9" />
    <rect
       x="112.06328"
       y="62.568001"
       width="1.3949739"
       height="2.0939374"
       style="fill:#9a916c;stroke-width:0.984455"
       id="rect122-7" />
    <rect
       x="115.19599"
       y="61.685982"
       width="1.0464764"
       height="2.0939374"
       style="fill:#dbddda;stroke-width:0.984455"
       id="rect123" />
    <rect
       x="115.19599"
       y="62.035458"
       width="1.0464764"
       height="1.3959583"
       style="fill:#2a2d2e;stroke-width:0.984455"
       id="rect124" />
    <rect
       x="115.41894"
       y="67.714325"
       width="1.0464764"
       height="2.0939374"
       style="fill:#dbddda;stroke-width:0.984455"
       id="rect123-2" />
    <rect
       x="115.41894"
       y="68.063805"
       width="1.0464764"
       height="1.3959583"
       style="fill:#2a2d2e;stroke-width:0.984455"
       id="rect124-5" />
    <rect
       x="79.74791"
       y="-116.9923"
       width="1.0464764"
       height="2.0939374"
       style="fill:#dbddda;stroke-width:0.984455"
       id="rect123-3"
       transform="rotate(90)" />
    <rect
       x="79.74791"
       y="-116.64282"
       width="1.0464764"
       height="1.3959583"
       style="fill:#2a2d2e;stroke-width:0.984455"
       id="rect124-7"
       transform="rotate(90)" />
    <rect
       x="56.270596"
       y="-115.91637"
       width="1.5689787"
       height="3.1394336"
       style="fill:#dbddda;stroke-width:1.476"
       id="rect123-7-2"
       transform="rotate(90)" />
    <rect
       x="56.270596"
       y="-115.3924"
       width="1.5689787"
       height="2.0929556"
       style="fill:#2a2d2e;stroke-width:1.476"
       id="rect124-6-7"
       transform="rotate(90)" />
    <rect
       x="108.73076"
       y="58.657711"
       width="1.0464764"
       height="2.0939374"
       style="fill:#dbddda;stroke-width:0.984455"
       id="rect123-7-2-0" />
    <rect
       x="108.73076"
       y="59.007187"
       width="1.0464764"
       height="1.3959583"
       style="fill:#2a2d2e;stroke-width:0.984455"
       id="rect124-6-7-3" />
    <rect
       x="117.1226"
       y="31.978123"
       width="1.0464764"
       height="2.0939374"
       style="fill:#dbddda;stroke-width:0.984455"
       id="rect123-7-2-0-8" />
    <rect
       x="117.1226"
       y="32.327599"
       width="1.0464764"
       height="1.3959583"
       style="fill:#2a2d2e;stroke-width:0.984455"
       id="rect124-6-7-3-5" />
    <rect
       x="48.15794"
       y="-102.2983"
       width="1.0464764"
       height="2.0939374"
       style="fill:#dbddda;stroke-width:0.984455"
       id="rect123-7-2-0-4"
       transform="rotate(90)" />
    <rect
       x="48.15794"
       y="-101.94883"
       width="1.0464764"
       height="1.3959583"
       style="fill:#2a2d2e;stroke-width:0.984455"
       id="rect124-6-7-3-0"
       transform="rotate(90)" />
    <rect
       x="48.155521"
       y="-105.27658"
       width="1.0464764"
       height="2.0939374"
       style="fill:#dbddda;stroke-width:0.984455"
       id="rect123-7-2-0-4-4"
       transform="rotate(90)" />
    <rect
       x="48.155521"
       y="-104.92711"
       width="1.0464764"
       height="1.3959583"
       style="fill:#2a2d2e;stroke-width:0.984455"
       id="rect124-6-7-3-0-0"
       transform="rotate(90)" />
    <rect
       x="94.79895"
       y="55.154522"
       width="1.0454921"
       height="2.0929527"
       style="fill:#dbddda;stroke-width:0.984455"
       id="rect133" />
    <rect
       x="94.79895"
       y="55.503002"
       width="1.0454921"
       height="1.3949739"
       style="fill:#9a916c;stroke-width:0.984455"
       id="rect134" />
    <rect
       x="95.690712"
       y="90.307999"
       width="1.5189923"
       height="3.9057724"
       style="fill:#dbddda;stroke-width:1.62026"
       id="rect135" />
    <rect
       x="95.690712"
       y="90.960197"
       width="1.5189923"
       height="2.6032362"
       style="fill:#9a916c;stroke-width:1.62026"
       id="rect136" />
    <rect
       x="64.338486"
       y="-104.63995"
       width="1.3949739"
       height="2.7899477"
       style="fill:#dbddda;stroke-width:0.984455"
       id="rect143"
       transform="rotate(90)" />
    <rect
       x="64.338005"
       y="-104.29195"
       width="1.3949739"
       height="2.0939374"
       style="fill:#9a916c;stroke-width:0.984455"
       id="rect144"
       transform="rotate(90)" />
    <rect
       x="61.609791"
       y="-104.63995"
       width="1.3949739"
       height="2.7899477"
       style="fill:#dbddda;stroke-width:0.984455"
       id="rect145"
       transform="rotate(90)" />
    <rect
       x="61.60928"
       y="-104.29195"
       width="1.3949739"
       height="2.0939374"
       style="fill:#9a916c;stroke-width:0.984455"
       id="rect146"
       transform="rotate(90)" />
    <rect
       x="80.514587"
       y="55.502522"
       width="0.95771545"
       height="1.9161067"
       style="fill:#dbddda;stroke-width:0.675876"
       id="rect151" />
    <rect
       x="80.514587"
       y="55.741768"
       width="0.95771545"
       height="1.4369111"
       style="fill:#2a2d2e;stroke-width:0.675876"
       id="rect152" />
    <rect
       x="109.57956"
       y="75.261459"
       width="2.0929527"
       height="1.0454921"
       style="fill:#dbddda;stroke-width:0.984455"
       id="rect157" />
    <rect
       x="109.92801"
       y="75.261459"
       width="1.3959583"
       height="1.0454921"
       style="fill:#9a916c;stroke-width:0.984455"
       id="rect158" />
    <rect
       x="109.57956"
       y="76.856453"
       width="2.0929527"
       height="1.0454921"
       style="fill:#dbddda;stroke-width:0.984455"
       id="rect157-7" />
    <rect
       x="109.92801"
       y="76.856453"
       width="1.3959583"
       height="1.0454921"
       style="fill:#9a916c;stroke-width:0.984455"
       id="rect158-9" />
    <rect
       x="109.23102"
       y="68.359802"
       width="2.0929527"
       height="1.0454921"
       style="fill:#dbddda;stroke-width:0.984455"
       id="rect157-7-2" />
    <rect
       x="109.57956"
       y="68.359802"
       width="1.3959583"
       height="1.0454921"
       style="fill:#9a916c;stroke-width:0.984455"
       id="rect158-9-3" />
    <rect
       x="83.835388"
       y="68.174431"
       width="2.0929527"
       height="1.0454921"
       style="fill:#dbddda;stroke-width:0.984455"
       id="rect159" />
    <rect
       x="84.183899"
       y="68.174431"
       width="1.3949739"
       height="1.0454921"
       style="fill:#9a916c;stroke-width:0.984455"
       id="rect160" />
    <rect
       x="83.835869"
       y="79.931732"
       width="2.0929527"
       height="1.0464764"
       style="fill:#dbddda;stroke-width:0.984455"
       id="rect161" />
    <rect
       x="84.18438"
       y="79.931732"
       width="1.3949739"
       height="1.0464764"
       style="fill:#9a916c;stroke-width:0.984455"
       id="rect162" />
    <rect
       x="83.835869"
       y="74.373024"
       width="2.0929527"
       height="1.0464764"
       style="fill:#dbddda;stroke-width:0.984455"
       id="rect161-9" />
    <rect
       x="84.18438"
       y="74.373024"
       width="1.3949739"
       height="1.0464764"
       style="fill:#9a916c;stroke-width:0.984455"
       id="rect162-9" />
    <rect
       x="109.34264"
       y="86.203339"
       width="2.0929527"
       height="1.0464764"
       style="fill:#dbddda;stroke-width:0.984455"
       id="rect161-0-2" />
    <rect
       x="109.69113"
       y="86.203339"
       width="1.3949739"
       height="1.0464764"
       style="fill:#9a916c;stroke-width:0.984455"
       id="rect162-5-2" />
    <rect
       x="21.180065"
       y="112.63092"
       width="1.0464765"
       height="2.092953"
       transform="rotate(-45)"
       style="fill:#dbddda;stroke-width:0.984455"
       id="rect163-9" />
    <rect
       x="21.105024"
       y="112.99494"
       width="1.0464764"
       height="1.3949739"
       transform="rotate(-45.038001)"
       style="fill:#9a916c;stroke-width:0.984455"
       id="rect164-8" />
    <rect
       x="129.08205"
       y="-2.7590866"
       width="1.0464765"
       height="2.092953"
       transform="rotate(45)"
       style="fill:#dbddda;stroke-width:0.984455"
       id="rect163-9-7" />
    <rect
       x="129.08351"
       y="-2.3234673"
       width="1.0464764"
       height="1.3949739"
       transform="rotate(44.961999)"
       style="fill:#9a916c;stroke-width:0.984455"
       id="rect164-8-8" />
    <rect
       x="-84.014572"
       y="114.80969"
       width="2.0790348"
       height="1.0841882"
       style="fill:#dbddda;stroke-width:0.854454"
       id="rect169"
       transform="rotate(-90)" />
    <rect
       x="-83.754234"
       y="114.80969"
       width="1.5590926"
       height="1.0841882"
       style="fill:#2a2d2e;stroke-width:0.854454"
       id="rect170"
       transform="rotate(-90)" />
    <rect
       x="-84.014938"
       y="116.37453"
       width="2.0790348"
       height="1.0841882"
       style="fill:#dbddda;stroke-width:0.854454"
       id="rect169-9"
       transform="rotate(-90)" />
    <rect
       x="-83.754601"
       y="116.37453"
       width="1.5590926"
       height="1.0841882"
       style="fill:#2a2d2e;stroke-width:0.854454"
       id="rect170-8"
       transform="rotate(-90)" />
    <rect
       x="-91.555969"
       y="98.53595"
       width="2.0790348"
       height="1.0841882"
       style="fill:#dbddda;stroke-width:0.854454"
       id="rect169-0"
       transform="rotate(-90)" />
    <rect
       x="-91.295631"
       y="98.53595"
       width="1.5590926"
       height="1.0841882"
       style="fill:#2a2d2e;stroke-width:0.854454"
       id="rect170-6"
       transform="rotate(-90)" />
    <rect
       x="-91.556335"
       y="100.10078"
       width="2.0790348"
       height="1.0841882"
       style="fill:#dbddda;stroke-width:0.854454"
       id="rect169-9-2"
       transform="rotate(-90)" />
    <rect
       x="-91.295998"
       y="100.10078"
       width="1.5590926"
       height="1.0841882"
       style="fill:#2a2d2e;stroke-width:0.854454"
       id="rect170-8-4"
       transform="rotate(-90)" />
    <rect
       x="83.835388"
       y="64.841568"
       width="2.7909322"
       height="1.3959583"
       style="fill:#dbddda;stroke-width:0.984455"
       id="rect171" />
    <rect
       x="84.183899"
       y="64.841568"
       width="2.0929527"
       height="1.3959583"
       style="fill:#9a916c;stroke-width:0.984455"
       id="rect172" />
    <circle
       style="opacity:1;fill:#3d3f38;stroke-width:0.984455"
       id="path99"
       cx="90.653641"
       cy="70.268364"
       r="0.76909149" />
  </g>
</svg>
